<?xml version="1.0" standalone="no"?><!-- Generator: Gravit.io --><svg xmlns="http://www.w3.org/2000/svg" xmlns:xlink="http://www.w3.org/1999/xlink" style="isolation:isolate" viewBox="0 0 130 130" width="130" height="130"><defs><clipPath id="_clipPath_EIMkikAKaPkjW69SgDWPYJFOdu38NkUD"><rect width="130" height="130"/></clipPath></defs><g clip-path="url(#_clipPath_EIMkikAKaPkjW69SgDWPYJFOdu38NkUD)"><path d=" M 0 0 L 130 0 L 130 130 L 0 130 L 0 0 Z " fill-rule="evenodd" fill="rgb(0,0,0)"/><path d=" M 16.657 113.593 C 20.69 113.593 23.022 111.761 23.022 108.861 C 23.022 105.729 20.323 104.563 16.324 103.43 C 12.625 102.363 12.059 101.696 12.059 100.33 C 12.059 99.031 13.359 97.864 15.758 97.864 C 18.357 97.864 19.89 98.897 19.89 101.13 C 19.89 101.396 19.99 101.497 20.223 101.463 L 21.956 101.197 C 22.189 101.163 22.223 101.097 22.223 100.863 C 22.223 97.897 19.857 95.798 15.691 95.798 C 11.959 95.798 9.626 97.764 9.626 100.23 C 9.626 102.696 11.226 104.029 15.091 105.096 C 18.923 106.162 20.59 106.762 20.59 108.695 C 20.59 110.328 19.29 111.527 16.557 111.527 C 13.292 111.527 11.259 109.928 11.259 107.428 C 11.259 107.162 11.126 107.062 10.892 107.128 L 9.26 107.362 C 8.96 107.428 8.926 107.528 8.926 107.728 C 8.926 111.727 12.492 113.593 16.657 113.593 Z " fill="rgb(254,254,254)"/><path d=" M 40.394 104.596 C 40.394 100.597 38.228 95.832 32.363 95.832 C 27.264 95.832 24.032 99.797 24.032 104.696 C 24.032 109.628 27.197 113.593 32.496 113.593 C 36.628 113.593 39.027 111.427 40.027 108.961 C 40.094 108.795 40.027 108.695 39.827 108.661 L 38.028 108.395 C 37.894 108.361 37.761 108.428 37.695 108.561 C 37.328 109.228 36.128 111.527 32.463 111.527 C 28.197 111.527 26.597 107.595 26.597 105.829 C 26.597 105.662 26.698 105.562 26.864 105.562 L 40.127 105.562 C 40.294 105.562 40.394 105.462 40.394 105.296 L 40.394 104.596 Z  M 32.363 97.764 C 36.661 97.764 37.794 101.43 37.794 103.496 C 37.794 103.629 37.695 103.729 37.528 103.729 L 26.897 103.729 C 26.731 103.729 26.631 103.629 26.631 103.463 C 26.664 101.13 28.364 97.798 32.363 97.764 Z " fill="rgb(254,254,254)"/><path d=" M 41.869 113.493 L 43.802 113.493 C 43.969 113.493 44.069 113.393 44.069 113.227 L 44.069 101.863 C 44.935 99.497 47.501 97.897 49.967 97.897 C 53.2 97.897 55.132 99.764 55.132 104.196 L 55.132 113.227 C 55.132 113.393 55.232 113.493 55.399 113.493 L 57.299 113.493 C 57.465 113.493 57.565 113.393 57.565 113.227 L 57.565 103.863 C 57.565 97.664 54.333 95.832 50.634 95.832 C 47.868 95.832 45.402 97.431 44.369 98.764 C 44.202 98.964 44.069 98.897 44.069 98.664 L 44.069 96.198 C 44.069 96.031 43.969 95.931 43.802 95.931 L 41.869 95.931 C 41.703 95.931 41.603 96.031 41.603 96.198 L 41.603 113.227 C 41.603 113.393 41.703 113.493 41.869 113.493 Z " fill="rgb(254,254,254)"/><path d=" M 72.904 97.498 L 72.904 96.198 C 72.904 96.031 72.804 95.931 72.637 95.931 L 59.274 95.931 C 59.107 95.931 59.007 96.031 59.007 96.198 L 59.007 97.731 C 59.007 97.897 59.107 97.997 59.274 97.997 L 69.271 97.997 C 69.504 97.997 69.538 98.164 69.405 98.331 L 59.141 111.594 C 59.074 111.694 59.007 111.794 59.007 111.927 L 59.007 113.193 C 59.007 113.36 59.107 113.46 59.274 113.46 L 72.637 113.46 C 72.804 113.46 72.904 113.36 72.904 113.193 L 72.904 111.66 C 72.904 111.494 72.804 111.394 72.637 111.394 L 62.473 111.394 C 62.24 111.394 62.207 111.227 62.34 111.061 L 72.77 97.831 C 72.837 97.731 72.904 97.631 72.904 97.498 Z " fill="rgb(254,254,254)"/><path d=" M 83.11 113.593 C 88.476 113.593 92.108 109.594 92.108 104.696 C 92.108 99.797 88.476 95.832 83.11 95.832 C 77.745 95.832 74.113 99.797 74.113 104.696 C 74.113 109.594 77.745 113.593 83.11 113.593 Z  M 83.11 97.897 C 87.176 97.897 89.675 100.963 89.675 104.696 C 89.675 108.428 87.176 111.527 83.11 111.527 C 79.011 111.527 76.578 108.428 76.578 104.696 C 76.578 100.963 79.011 97.897 83.11 97.897 Z " fill="rgb(254,254,254)"/><path d=" M 104.247 96.631 C 103.747 96.331 102.548 95.832 101.081 95.832 C 99.448 95.832 97.482 96.531 96.083 98.364 C 95.949 98.564 95.783 98.498 95.783 98.264 L 95.783 96.198 C 95.783 96.031 95.683 95.931 95.516 95.931 L 93.583 95.931 C 93.417 95.931 93.317 96.031 93.317 96.198 L 93.317 113.227 C 93.317 113.393 93.417 113.493 93.583 113.493 L 95.516 113.493 C 95.683 113.493 95.783 113.393 95.783 113.227 L 95.783 103.463 C 95.783 99.73 98.482 98.264 100.815 98.264 C 102.248 98.264 103.114 98.664 103.647 98.997 C 103.78 99.064 103.947 99.031 103.98 98.831 L 104.414 96.998 C 104.447 96.864 104.414 96.731 104.247 96.631 Z " fill="rgb(254,254,254)"/><path d=" M 114.42 113.593 C 119.786 113.593 123.418 109.594 123.418 104.696 C 123.418 99.797 119.786 95.832 114.42 95.832 C 109.055 95.832 105.423 99.797 105.423 104.696 C 105.423 109.594 109.055 113.593 114.42 113.593 Z  M 114.42 97.897 C 118.486 97.897 120.985 100.963 120.985 104.696 C 120.985 108.428 118.486 111.527 114.42 111.527 C 110.321 111.527 107.889 108.428 107.889 104.696 C 107.889 100.963 110.321 97.897 114.42 97.897 Z " fill="rgb(254,254,254)"/><linearGradient id="_lgradient_8" x1="442.24611" y1="463.71798" x2="442.40995" y2="415.26397" gradientTransform="matrix(1,0,0,-1,-379.061,497.264)" gradientUnits="userSpaceOnUse"><stop offset="0%" stop-opacity="1" style="stop-color:rgb(59,176,125)"/><stop offset="100%" stop-opacity="1" style="stop-color:rgb(0,131,217)"/></linearGradient><path d=" M 67.264 43.765 L 67.707 42.998 L 70.413 38.31 L 65 38.31 L 59.586 38.31 L 61.118 40.963 L 62.292 42.998 L 82.466 78.436 L 84.523 82 L 80.409 82 L 65 82 L 49.59 82 L 45.477 82 L 47.534 78.436 L 55.239 65.091 L 60.14 56.6 L 62.88 61.344 L 59.352 67.455 L 53.704 77.236 L 65 77.236 L 76.295 77.236 C 70.187 66.656 64.292 55.949 58.18 45.361 L 57.511 44.203 L 53.416 37.11 L 51.358 33.546 L 55.472 33.546 L 65 33.546 L 74.527 33.546 L 78.642 33.546 L 76.584 37.11 L 71.82 45.361 L 70.003 48.509 L 67.264 43.765 Z " fill="url(#_lgradient_8)"/></g></svg>