<?xml version="1.0" standalone="no"?><!-- Generator: Gravit.io --><svg xmlns="http://www.w3.org/2000/svg" xmlns:xlink="http://www.w3.org/1999/xlink" style="isolation:isolate" viewBox="0 0 190 190" width="190" height="190"><defs><clipPath id="_clipPath_qWQUVfhdcr5Q9fLBVuAoMzXevLyP433r"><rect width="190" height="190"/></clipPath></defs><g clip-path="url(#_clipPath_qWQUVfhdcr5Q9fLBVuAoMzXevLyP433r)"><clipPath id="_clipPath_nA6pf9L6UhGcRmNE25557iV0i6arXv1O"><rect x="0" y="0" width="190" height="190" transform="matrix(1,0,0,1,0,0)" fill="rgb(255,255,255)"/></clipPath><g clip-path="url(#_clipPath_nA6pf9L6UhGcRmNE25557iV0i6arXv1O)"><g><linearGradient id="_lgradient_7" x1="0.45351339285714243" y1="-0.0000035975990746450748" x2="0.4569000695036092" y2="0.9999966580668234" gradientTransform="matrix(132.909,-0.075,0.093,164.927,28.453,12.568)" gradientUnits="userSpaceOnUse"><stop offset="0%" stop-opacity="1" style="stop-color:rgb(59,176,125)"/><stop offset="100%" stop-opacity="1" style="stop-color:rgb(0,131,217)"/></linearGradient><path d=" M 102.631 47.312 L 104.138 44.697 L 113.341 28.737 L 94.916 28.748 L 76.488 28.758 L 81.706 37.783 L 85.71 44.708 L 154.443 165.295 L 161.454 177.421 L 147.448 177.428 L 95 177.458 L 42.549 177.487 L 28.546 177.495 L 35.54 165.362 L 61.741 119.922 L 78.41 91.011 L 87.744 107.154 L 75.745 127.959 L 56.542 161.266 L 94.991 161.244 L 133.436 161.222 C 112.627 125.221 92.539 88.789 71.715 52.76 L 69.436 48.82 L 55.485 24.685 L 48.474 12.557 L 62.476 12.549 L 94.907 12.531 L 127.335 12.513 L 141.338 12.505 L 134.343 24.641 L 118.142 52.734 L 111.965 63.452 L 102.631 47.312 Z " fill="url(#_lgradient_7)"/></g></g></g></svg>