<?xml version="1.0" ?><!DOCTYPE svg  PUBLIC '-//W3C//DTD SVG 1.1//EN'  'http://www.w3.org/Graphics/SVG/1.1/DTD/svg11.dtd'><svg enable-background="new 0 0 512 512" height="512px" id="Layer_1" version="1.1" viewBox="0 0 512 512" width="512px" xml:space="preserve" xmlns="http://www.w3.org/2000/svg" xmlns:xlink="http://www.w3.org/1999/xlink"><path d="M229.871,104.294c-5.332,0-10.323,5.83-12.213,8.907L96.292,340.246l-0.057,0.245l-0.169,0.392  c-0.182,0.418-0.479,0.995-0.883,1.767c-1.813,3.473-4.85,9.285-2.67,14.399c1.457,3.421,5.079,5.997,10.72,7.646l0.047,0.013  c3.816,1.041,246.279,66.411,248.704,67.065l0.151,0.044c0.507,0.155,5.093,1.52,10.009,1.52c5.38,0,9.333-1.652,11.436-4.779  c3.116-4.638,2.438-12.532-2.021-23.464c-2.827-6.929-127.549-283.815-128.808-286.607l-0.053-0.118l-0.046-0.119  C239.089,108.988,234.788,104.294,229.871,104.294L229.871,104.294z" fill="#FFFFFF"/><path d="M473.967,440.35c-4.015-9.843-177.045-393.981-181.557-403.994c-6.088-15.808-14.188-23.821-24.076-23.821  c-2.659,0-5.351,0.616-7.999,1.829c-1.644,0.752-6.389,2.053-10.201,3.096c-2.085,0.571-4.194,1.149-6.126,1.714  c-2.845,0.831-5.455,1.634-7.765,2.343c-3.584,1.102-6.681,2.052-8.115,2.314c-11.072,2.029-18.709,14.002-19.544,15.361  l-0.103,0.166L37.004,360.153l-0.139,0.605c-0.183,0.421-0.674,1.359-1.04,2.063c-2.887,5.525-8.259,15.809-3.981,25.846  c2.853,6.697,9.355,11.569,19.327,14.48l0.111,0.031c5.325,1.45,342.447,92.346,350.396,94.488  c1.204,0.368,8.249,2.422,15.993,2.422h0.001c3.217,0,6.203-0.354,8.875-1.052c2.33-0.606,6.63-1.964,12.072-3.68  c8.246-2.6,18.509-5.836,24.066-7.104c6.739-1.535,11.807-5.239,14.653-10.711C481.79,468.993,480.688,456.826,473.967,440.35z   M380.473,437.563c-2.221,3.304-6.397,5.049-12.08,5.049c-5.193,0-10.038-1.439-10.573-1.604l-0.16-0.046  c-2.562-0.691-258.695-69.749-262.729-70.849l-0.049-0.014c-5.959-1.74-9.785-4.462-11.324-8.075  c-2.303-5.404,0.904-11.544,2.82-15.212c0.426-0.814,0.74-1.425,0.933-1.866l0.18-0.413l0.059-0.259l128.21-239.848  c1.996-3.252,7.269-9.41,12.901-9.41c5.193,0,9.736,4.959,13.505,14.738l0.048,0.126l0.056,0.125  c1.329,2.949,133.084,295.45,136.07,302.771C383.047,424.323,383.765,432.663,380.473,437.563z" fill="#EF4124"/><path d="M430.948,453.805c-3.981-9.762-179.691-399.847-181.465-403.779l-0.073-0.166l-0.064-0.168  c-5.023-13.044-11.083-19.657-18.01-19.657c-7.514,0-14.544,8.215-17.206,12.55L43.146,362.449l-0.078,0.346l-0.238,0.552  c-0.256,0.589-0.677,1.401-1.243,2.487c-2.557,4.894-6.832,13.08-3.762,20.287c2.053,4.818,7.154,8.448,15.103,10.77l0.065,0.019  c5.378,1.467,346.962,93.563,350.378,94.484l0.215,0.061c0.714,0.221,7.175,2.142,14.102,2.142c7.578,0,13.148-2.328,16.109-6.734  C438.187,480.326,437.229,469.204,430.948,453.805z M380.473,437.563c-2.221,3.304-6.397,5.049-12.08,5.049  c-5.193,0-10.038-1.439-10.573-1.604l-0.16-0.046c-2.562-0.691-258.695-69.749-262.729-70.849l-0.049-0.014  c-5.959-1.74-9.785-4.462-11.324-8.075c-2.303-5.404,0.904-11.544,2.82-15.212c0.426-0.814,0.74-1.425,0.933-1.866l0.18-0.413  l0.059-0.259l128.21-239.848c1.996-3.252,7.269-9.41,12.901-9.41c5.193,0,9.736,4.959,13.505,14.738l0.048,0.126l0.056,0.125  c1.329,2.949,133.084,295.45,136.07,302.771C383.047,424.323,383.765,432.663,380.473,437.563z" fill="#EF4124"/><linearGradient gradientTransform="matrix(1 0 0 -1 -41.6001 348.0991)" gradientUnits="userSpaceOnUse" id="SVGID_1_" x1="281.7766" x2="272.2767" y1="-66.1155" y2="-104.2176"><stop offset="0" style="stop-color:#EF4124"/><stop offset="0.2121" style="stop-color:#EF4727"/><stop offset="0.9888" style="stop-color:#F8A89A"/></linearGradient><polygon fill="url(#SVGID_1_)" points="424.855,498.094 37.116,404.058 48.83,368.728 418.879,458.771 429.823,477.74 "/><linearGradient gradientTransform="matrix(1 0 0 -1 -41.6001 348.0991)" gradientUnits="userSpaceOnUse" id="SVGID_2_" x1="269.1897" x2="333.7564" y1="69.0842" y2="294.2551"><stop offset="0" style="stop-color:#F16044"/><stop offset="1" style="stop-color:#F6937F"/></linearGradient><path d="M136.408,252.869l79.35-148.441c1.996-3.251,7.269-9.41,12.901-9.41  c5.193,0,9.736,4.959,13.505,14.738l0.048,0.126l0.056,0.125c0.761,1.688,44.232,98.196,81.843,181.822  c9.063-1.994,18.36-4.534,27.897-7.719C346.093,270.927,240.389,39,240.389,39h-20.59L161.51,145.609l-46.965,88.639  C114.545,234.248,122.139,242.408,136.408,252.869z" fill="url(#SVGID_2_)"/><linearGradient gradientTransform="matrix(1 0 0 -1 -41.6001 348.0991)" gradientUnits="userSpaceOnUse" id="SVGID_3_" x1="345.0256" x2="375.0249" y1="74.967" y2="91.4662"><stop offset="0" style="stop-color:#F8A89B"/><stop offset="1" style="stop-color:#FFFFFF"/></linearGradient><path d="M231.477,42.537c3.644,0,7.989,5.638,11.625,15.08l0.127,0.328l0.146,0.322  c34.165,75.835,172.965,384.099,176.538,392.81c5.12,12.557,6.32,21.88,3.381,26.257c-2.089,3.105-6.824,3.758-10.431,3.758  c-5.92,0-11.63-1.731-11.869-1.806l-0.208-0.063l-0.211-0.058c-3.319-0.896-334.048-90.063-340.976-91.948  c-4.041-1.187-9.146-3.34-10.657-6.89c-1.813-4.26,1.48-10.566,3.456-14.348c0.63-1.207,1.067-2.058,1.4-2.824l0.465-1.072  l0.02-0.08L220.209,51.592C222.537,47.882,227.637,42.537,231.477,42.537 M231.477,29.883c-12.427,0-21.188,13.681-22.146,15.24  l-0.1,0.162L42.323,357.533l-0.136,0.591c-0.177,0.407-0.654,1.323-1.013,2.007c-2.809,5.378-8.038,15.388-3.875,25.156  c2.776,6.521,9.105,11.262,18.812,14.095l0.108,0.03c5.184,1.414,333.284,89.875,341.061,91.972c1.176,0.36,8.038,2.36,15.581,2.36  c12.104,0,18.063-5.086,20.932-9.353c5.6-8.331,4.892-20.792-2.164-38.093c-3.882-9.515-172.327-383.481-176.719-393.229  C248.985,37.686,241.102,29.883,231.477,29.883L231.477,29.883z" fill="url(#SVGID_3_)"/><linearGradient gradientTransform="matrix(1 0 0 -1 -41.6001 348.0991)" gradientUnits="userSpaceOnUse" id="SVGID_4_" x1="362.4163" x2="323.4182" y1="78.8347" y2="57.8357"><stop offset="0" style="stop-color:#CA2628"/><stop offset="0.8851" style="stop-color:#E33B27"/></linearGradient><path d="M479.985,437.895L479.985,437.895c-5.006-12.051-175.552-390.679-181.575-404.046  c-3.371-8.713-7.248-15.184-11.846-19.774c-6.653-6.645-13.586-8.04-18.229-8.04c-3.601,0-7.202,0.814-10.706,2.419  c-1.3,0.57-6.062,1.875-9.212,2.737c-2.078,0.569-4.228,1.157-6.231,1.743c-2.897,0.847-5.528,1.653-7.849,2.367  c-2.557,0.784-5.398,1.657-6.813,2.009c-13.796,2.181-22.712,15.587-24.477,18.462l-0.204,0.341l-0.184,0.348  C200.96,39.637,32.814,354.198,31.68,356.322l-0.819,1.535l-0.17,0.744c-0.182,0.357-0.428,0.831-0.627,1.212  c-2.259,4.323-6.271,12.007-6.314,20.765c-0.017,3.047,0.45,6.223,1.636,9.433c0.148,0.401,0.309,0.804,0.479,1.204  c3.653,8.576,11.557,14.69,23.486,18.174l0.111,0.031l0.11,0.03c0.376,0.104,2.347,0.635,5.69,1.538  c0.665,0.179,1.392,0.375,2.162,0.583c1.386,0.374,2.933,0.792,4.646,1.254c1.067,0.288,2.197,0.593,3.387,0.913  c0.755,0.204,1.542,0.416,2.344,0.633c0.923,0.249,1.876,0.506,2.859,0.771c1.035,0.278,2.104,0.567,3.207,0.864  c1.649,0.445,3.374,0.91,5.163,1.394c0.66,0.178,1.329,0.357,2.009,0.541c9.178,2.477,20.015,5.398,32.066,8.648  c1.195,0.322,2.403,0.647,3.622,0.978c3.057,0.824,6.186,1.667,9.377,2.528c1.293,0.349,2.597,0.7,3.909,1.055  c83.554,22.531,208.216,56.145,253.407,68.328c0.344,0.092,0.682,0.184,1.016,0.273c1.894,0.511,3.636,0.979,5.222,1.407  c0.65,0.175,1.277,0.345,1.873,0.505c0.879,0.237,1.696,0.457,2.454,0.661c2.898,0.781,4.908,1.324,5.887,1.588  c1.843,0.562,9.364,2.681,17.813,2.681c4.317,0,8.017-0.555,11.215-1.458c0.258-0.071,0.533-0.148,0.82-0.23  c0.075-0.022,0.154-0.042,0.229-0.065c2.568-0.741,6.22-1.893,10.627-3.281c7.703-2.429,18.254-5.756,23.556-6.964  c10.938-2.492,16.355-9.017,18.976-14.049C488.491,470.197,487.471,456.246,479.985,437.895z M52.992,396.908  c-28.676-8.369-10.83-30.152-9.847-34.459c1.146-2.146,170.978-319.855,170.978-319.855s0.008-0.014,0.021-0.034  c0.002-0.004,0.007-0.012,0.009-0.016c0.014-0.021,0.03-0.047,0.052-0.08c0.01-0.015,0.022-0.035,0.033-0.054  c0.022-0.033,0.046-0.068,0.072-0.111c0.013-0.019,0.027-0.041,0.04-0.061c0.032-0.049,0.065-0.1,0.104-0.157  c0.018-0.024,0.037-0.054,0.056-0.081c0.039-0.059,0.08-0.121,0.126-0.187c0.023-0.035,0.049-0.071,0.074-0.108  c0.045-0.065,0.094-0.136,0.145-0.209c0.028-0.041,0.061-0.085,0.09-0.129c0.054-0.074,0.107-0.151,0.165-0.229  c0.035-0.051,0.07-0.101,0.107-0.15c0.061-0.083,0.123-0.17,0.188-0.258c0.037-0.051,0.074-0.103,0.113-0.154  c0.07-0.094,0.146-0.191,0.219-0.291c0.04-0.053,0.08-0.104,0.121-0.159c0.08-0.104,0.164-0.213,0.249-0.321  c0.041-0.054,0.081-0.104,0.123-0.157c0.099-0.124,0.199-0.25,0.304-0.379c0.032-0.041,0.063-0.081,0.099-0.123  c0.139-0.171,0.283-0.346,0.432-0.522c0.001,0,0.001,0,0.001,0c0.307-0.364,0.633-0.739,0.979-1.121  c0.031-0.034,0.063-0.068,0.096-0.104c0.14-0.153,0.282-0.308,0.429-0.462c0.049-0.052,0.1-0.104,0.148-0.154  c0.131-0.137,0.264-0.275,0.4-0.413c0.062-0.062,0.124-0.124,0.187-0.187c0.128-0.127,0.257-0.254,0.388-0.382  c0.071-0.067,0.145-0.137,0.217-0.204c0.126-0.119,0.254-0.239,0.384-0.357c0.079-0.072,0.159-0.146,0.238-0.217  c0.128-0.114,0.257-0.229,0.387-0.341c0.084-0.073,0.169-0.146,0.255-0.219c0.13-0.109,0.262-0.219,0.395-0.328  c0.089-0.071,0.179-0.145,0.269-0.216c0.134-0.104,0.269-0.21,0.403-0.313c0.094-0.07,0.187-0.142,0.279-0.211  c0.139-0.103,0.277-0.201,0.417-0.302c0.095-0.065,0.188-0.134,0.284-0.198c0.146-0.1,0.291-0.194,0.438-0.29  c0.096-0.063,0.188-0.124,0.284-0.186c0.154-0.097,0.312-0.188,0.468-0.28c0.091-0.055,0.181-0.109,0.271-0.162  c0.18-0.103,0.361-0.197,0.543-0.293c0.072-0.038,0.144-0.078,0.215-0.115c0.254-0.129,0.511-0.251,0.77-0.365  c0.074-0.033,0.149-0.063,0.227-0.095c0.186-0.079,0.369-0.157,0.558-0.229c0.112-0.043,0.229-0.08,0.342-0.12  c0.151-0.054,0.304-0.106,0.458-0.155c0.125-0.039,0.252-0.072,0.378-0.107c0.145-0.041,0.289-0.083,0.436-0.118  c0.134-0.031,0.267-0.06,0.399-0.087c0.764-0.16,1.542-0.255,2.334-0.255c5.808-0.001,12.283,4.692,18.073,19.823  c2.526,5.606,178.971,397.339,181.539,403.946c10.977,26.91,3.898,36.241-5.813,38.886c-0.074,0.021-0.157,0.043-0.228,0.062  c-0.58,0.15-1.169,0.278-1.763,0.385c-0.012,0.003-0.022,0.005-0.035,0.007c-1.184,0.211-2.39,0.339-3.593,0.401  c-0.017,0-0.034,0.002-0.052,0.002c-0.601,0.029-1.197,0.045-1.792,0.045c-6.869,0-13.182-1.857-14.068-2.13  c-0.068-0.021-0.116-0.036-0.116-0.036S58.407,398.385,52.992,396.908z M461.243,481.92c-3.236,0.736-7.882,2.076-12.813,3.574  c2.477-9.531,0.667-21.61-5.446-36.6h-0.001C437.977,436.839,267.433,58.217,261.41,44.849c-3.372-8.712-7.248-15.2-11.845-19.79  c-0.189-0.19-0.382-0.361-0.571-0.543c5.491-1.525,11.483-3.068,14.049-4.243c1.668-0.766,3.444-1.238,5.291-1.238  c5.808,0,12.285,4.695,18.074,19.823c2.526,5.606,178.971,397.339,181.539,403.946C479.258,470.533,471.402,479.604,461.243,481.92z  " fill="url(#SVGID_4_)"/><g><g><path d="M217.841,309.472c-0.976,21.72,23.829,24.474,23.464,1.836c-0.244,6.726,0-122.079,0-132.787    c0.182-28.379-22.915-22.184-23.464,1.223C217.841,174.235,218.085,305.8,217.841,309.472z" fill="#050505"/></g><g><path d="M217.788,357.2c0,0-0.471-13.617,12.211-13.159c10.555,0.488,11.569,10.88,11.318,15.756    c-0.258,4.869-0.43,16.521-11.768,15.755C215.284,374.332,217.788,357.2,217.788,357.2z" fill="#050505"/></g></g><linearGradient gradientTransform="matrix(1 0 0 -1 -41.6001 348.0991)" gradientUnits="userSpaceOnUse" id="SVGID_5_" x1="235.2312" x2="326.7273" y1="102.7087" y2="65.2106"><stop offset="0" style="stop-color:#CA2628"/><stop offset="0.8851" style="stop-color:#E33B27"/></linearGradient><path d="M227.91,109.783c0.6,1.073,1.32,2.567,2.112,4.619l0.036,0.097l0.13,0.341l0.147,0.333l0.056,0.125  l0.012,0.024l0.013,0.025c12.827,28.465,132.709,294.671,135.885,302.338c2.651,6.505,3.159,10.152,3.196,11.879  c-0.304,0.027-0.67,0.047-1.104,0.047c-2.763,0-5.819-0.746-6.763-1.033l-0.116-0.035l-0.117-0.033l-0.16-0.046l-0.094-0.027  l-0.096-0.025c-0.526-0.143-11.771-3.174-29.339-7.91c-68.404-18.443-227.972-61.467-233.271-62.904  c-1.061-0.313-1.827-0.619-2.364-0.873c0.479-1.311,1.373-3.021,1.824-3.888c0.527-1.008,0.96-1.846,1.345-2.728l0.179-0.413  l0.125-0.289l127.45-238.427C227.26,110.581,227.576,110.172,227.91,109.783 M228.659,95.017c-5.634,0-10.905,6.159-12.901,9.41  L87.548,344.274l-0.06,0.259l-0.179,0.413c-0.191,0.441-0.507,1.052-0.933,1.866c-1.916,3.668-5.123,9.808-2.82,15.212  c1.539,3.613,5.365,6.335,11.324,8.075l0.049,0.014c4.032,1.1,260.167,70.156,262.729,70.849l0.16,0.046  c0.535,0.164,5.38,1.604,10.573,1.604c5.683,0,9.859-1.745,12.08-5.049c3.292-4.899,2.574-13.239-2.135-24.786  c-2.986-7.319-134.741-299.82-136.07-302.771l-0.056-0.125l-0.048-0.126C238.396,99.976,233.854,95.017,228.659,95.017  L228.659,95.017z" fill="url(#SVGID_5_)"/></svg>