<?xml version="1.0" ?><!DOCTYPE svg  PUBLIC '-//W3C//DTD SVG 1.1//EN'  'http://www.w3.org/Graphics/SVG/1.1/DTD/svg11.dtd'><svg enable-background="new 0 0 50 50" id="Layer_1" version="1.1" viewBox="0 0 50 50" xml:space="preserve" xmlns="http://www.w3.org/2000/svg" xmlns:xlink="http://www.w3.org/1999/xlink"><g><g><g enable-background="new    "><path d="M40.38445,24.76735L40.31848,48.0496c-0.00123,0.42214-0.15055,0.72031-0.39138,0.86024l2.03332-1.18188     c0.24089-0.13993,0.39021-0.43763,0.39138-0.86024l0.06597-23.28226L40.38445,24.76735z" fill="#D4DBE9"/><g><polygon fill="#E3E6F0" points="7.64049,5.86246 9.67381,4.68082 42.4178,23.58557 40.38448,24.76721     "/></g><g><path d="M40.38448,24.76721L40.31847,48.0495c-0.0024,0.8463-0.59994,1.19411-1.33672,0.76873L8.90248,31.45195      c-0.73678-0.42538-1.3304-1.4609-1.328-2.3072L7.64049,5.86246L40.38448,24.76721z" fill="#E3E6F0"/></g></g><g enable-background="new    "><path d="M41.09754,18.548L11.01826,1.18175c-0.36925-0.21318-0.70352-0.23243-0.94546-0.09156L8.03948,2.2716     c0.24194-0.1404,0.57621-0.12115,0.94546,0.09203l30.07928,17.36626c0.7368,0.42542,1.33038,1.46033,1.32798,2.30696     l-0.00775,2.7305l2.03332-1.18189l0.00775-2.73003C42.42793,20.00881,41.83434,18.97343,41.09754,18.548z" fill="#4D5772"/><g><path d="M39.06422,19.72972c0.73678,0.42538,1.33039,1.46052,1.328,2.3072l-0.00774,2.73029L7.64049,5.86246      l0.00774-2.73029c0.0024-0.84668,0.59994-1.19411,1.33672-0.76873L39.06422,19.72972z" fill="#384052"/></g></g></g><g><g><path d="M16.30898,9.06524c0.37452,0.21623,0.68054,0.73912,0.6793,1.17662l-0.00288,1.01587L9.1939,6.75931     l0.00288-1.01587c0.00124-0.4375,0.30306-0.60945,0.68374-0.38967L16.30898,9.06524z" fill="#9EAAC2"/></g><g enable-background="new    "><g><polygon fill="#D4DBE9" points="11.05276,25.71829 11.04994,26.71311 10.23335,26.24165 10.23617,25.24683     "/></g><g><path d="M9.83821,24.61451L27.6807,34.91588l-0.0051,1.79902L9.83311,26.41353L9.83821,24.61451z       M27.2845,35.83884l0.00142-0.50065l-6.41618-3.70439l0.0007-0.24727l-0.43594-0.25169l-0.0007,0.24727l-9.38175-5.41656      l0.0007-0.24727l-0.81659-0.47146l-0.00282,0.99482l0.8166,0.47146l0.0007-0.2469l9.38175,5.41656l-0.0007,0.2469      l0.43594,0.25169l0.0007-0.2469L27.2845,35.83884" fill="#4D5772"/></g><g><polygon fill="#678CC8" points="20.43381,31.38212 20.43239,31.88278 11.05064,26.46622 11.05206,25.96556     "/></g><g><polygon fill="#D4DBE9" points="20.87045,31.38654 20.86975,31.6338 20.86833,32.13446 20.86763,32.38135 20.43169,32.12966       20.43239,31.88278 20.43381,31.38212 20.43451,31.13485     "/></g><g><polygon fill="#FFFFFF" points="27.28592,35.33818 27.2845,35.83884 20.86833,32.13446 20.86975,31.6338     "/></g><g><path d="M9.87583,11.34354l17.84249,10.30137L27.6807,34.91588L9.83821,24.61451L9.87583,11.34354z       M21.03882,26.21935l0.0101-3.56319l-4.52508-2.61256l-0.0101,3.56319L21.03882,26.21935" fill="#F491AB"/></g></g><g><path d="M24.77586,13.9536c0.37454,0.21624,0.68056,0.73913,0.67932,1.17663L25.4523,16.1461l-7.79152-4.49844     l0.00288-1.01587c0.00124-0.4375,0.30308-0.60944,0.68376-0.38966L24.77586,13.9536z" fill="#9EAAC2"/></g><g><path d="M33.7065,17.96489c0.3868,0.22332,0.69891,0.76391,0.69763,1.21557     c-0.00126,0.4444-0.3154,0.62341-0.70221,0.40009c-0.38682-0.22333-0.69893-0.76392-0.69767-1.20831     C33.00554,17.92058,33.31968,17.74156,33.7065,17.96489z" fill="#F8D4B4"/></g><g enable-background="new    "><g><path d="M30.78736,21.56539l8.0064,4.6225l-0.01688,5.95474l-8.0064-4.6225L30.78736,21.56539z       M35.79294,28.23604l0.00452-1.59462l-2.02615-1.1698l-0.00452,1.59462L35.79294,28.23604" fill="#86AEDC"/></g><g><path d="M33.77131,25.47161l2.02615,1.1698l-0.00452,1.59462l-2.02615-1.1698L33.77131,25.47161z       M34.25883,27.04667l1.04519,0.10848l-1.04239-1.09641L34.25883,27.04667" fill="#FFFFFF"/></g><g><polygon fill="#4D5772" points="34.26164,26.05873 35.30402,27.15513 34.25884,27.04666     "/></g></g><g><path d="M38.06581,20.48174c0.3868,0.22332,0.70507,0.76746,0.70379,1.21913     c-0.00126,0.44439-0.32157,0.61986-0.70837,0.39654c-0.3868-0.22332-0.69893-0.76392-0.69767-1.20831     C37.36484,20.43743,37.67901,20.25842,38.06581,20.48174z" fill="#F491AB"/></g><g><path d="M35.88615,19.22331c0.38683,0.22333,0.69893,0.76392,0.69765,1.21558     c-0.00126,0.4444-0.3154,0.62341-0.70223,0.40008c-0.3868-0.22332-0.69893-0.76392-0.69767-1.20831     C35.18518,19.179,35.49934,18.99999,35.88615,19.22331z" fill="#86AEDC"/></g><g><polygon fill="#4D5772" points="17.62709,21.35917 19.93869,23.80332 17.62083,23.56736    "/></g><g><path d="M16.52384,20.0436l4.52508,2.61256l-0.0101,3.56319l-4.52508-2.61256L16.52384,20.0436z      M17.62083,23.56737l2.31787,0.23595l-2.31161-2.44414L17.62083,23.56737" fill="#FFFFFF"/></g><g><path d="M30.76669,28.85332l8.0064,4.6225l-0.01688,5.95472l-8.0064-4.6225L30.76669,28.85332z      M35.77228,35.52394l0.00452-1.59423l-2.02615-1.1698l-0.00452,1.59423L35.77228,35.52394" fill="#F491AB"/></g><g><path d="M33.75064,32.75992l2.02615,1.1698l-0.00452,1.59423l-2.02615-1.1698L33.75064,32.75992z      M34.23817,34.33458l1.04519,0.10886l-1.04239-1.09678L34.23817,34.33458" fill="#FFFFFF"/></g><g><polygon fill="#4D5772" points="34.24098,33.34665 35.28336,34.44343 34.23817,34.33458    "/></g><g><path d="M33.72998,40.04782l2.02616,1.1698l-0.00454,1.60152l-2.02615-1.1698L33.72998,40.04782z      M34.21751,41.62249l1.04519,0.10887l-1.04239-1.09641L34.21751,41.62249" fill="#FFFFFF"/></g><g><polygon fill="#4D5772" points="34.22031,40.63495 35.26269,41.73135 34.21751,41.62249    "/></g><g><path d="M30.74601,36.14849l8.0064,4.6225l-0.01686,5.94747l-8.0064-4.6225L30.74601,36.14849z      M35.75159,42.81915l0.00454-1.60152l-2.02616-1.1698l-0.00454,1.60152L35.75159,42.81915" fill="#98D095"/></g></g></g></svg>