<?xml version="1.0" ?><!DOCTYPE svg  PUBLIC '-//W3C//DTD SVG 1.1//EN'  'http://www.w3.org/Graphics/SVG/1.1/DTD/svg11.dtd'><svg enable-background="new 0 0 130 130" height="130px" id="Layer_1" version="1.1" viewBox="0 0 130 130" width="130px" xml:space="preserve" xmlns="http://www.w3.org/2000/svg" xmlns:xlink="http://www.w3.org/1999/xlink"><g><g><g><polygon fill="#65C192" points="82.827,9.514 97.572,18.027 97.572,97.459 82.827,88.947    "/><polyline fill="#56BE8C" points="82.827,9.514 97.572,18.027 97.572,97.459    "/><polygon fill="#3EB988" points="112.313,9.514 97.572,18.027 97.572,97.459 112.313,88.947    "/><polyline fill="#0BAF7C" points="112.313,9.514 97.572,18.027 97.572,97.459    "/><polygon fill="#86CCA5" points="97.572,1 112.313,9.514 97.572,18.027 82.827,9.514    "/><polyline fill="#73C597" points="112.313,9.514 97.572,18.027 82.827,9.514    "/></g><g><polygon fill="#FAA821" points="55.397,44.971 70.142,53.486 70.142,113.229 55.397,104.718    "/><polyline fill="#EA9D22" points="55.397,44.971 70.142,53.486 70.142,113.229    "/><polygon fill="#EC6923" points="84.883,44.971 70.142,53.486 70.142,113.229 84.883,104.718    "/><polyline fill="#E84524" points="84.883,44.971 70.142,53.486 70.142,113.229    "/><polygon fill="#F5CC27" points="70.142,36.459 84.883,44.971 70.142,53.486 55.397,44.971    "/><polyline fill="#E7BE20" points="84.883,44.971 70.142,53.486 55.397,44.971    "/></g><g><polygon fill="#A7D0D3" points="27.967,80.43 42.711,88.943 42.711,129 27.967,120.488    "/><polyline fill="#91BBBF" points="27.967,80.43 42.711,88.943 42.711,129    "/><polygon fill="#6B878E" points="57.453,80.43 42.711,88.943 42.711,129 57.453,120.488    "/><polyline fill="#537176" points="57.453,80.43 42.711,88.943 42.711,129    "/><polygon fill="#729499" points="42.711,71.916 57.453,80.43 42.711,88.943 27.967,80.43    "/><polyline fill="#5D7F80" points="57.453,80.43 42.711,88.943 27.967,80.43    "/></g></g><g><g><path d="M19.187,74.5c-0.331,0-0.665-0.109-0.942-0.333c-0.645-0.521-0.745-1.466-0.224-2.11l48.498-60     c0.521-0.644,1.465-0.743,2.109-0.224c0.645,0.521,0.745,1.466,0.224,2.11l-48.498,60C20.058,74.31,19.624,74.5,19.187,74.5z" fill="#676661"/></g><g><path d="M68.16,21.958c-0.01,0-0.021,0-0.032,0c-0.828-0.018-1.486-0.703-1.468-1.531l0.134-6.469h-5.563     c-0.829,0-1.5-0.672-1.5-1.5s0.671-1.5,1.5-1.5h8.625l-0.198,9.531C69.642,21.307,68.974,21.958,68.16,21.958z" fill="#676661"/></g></g></g></svg>