<?xml version="1.0" ?><!DOCTYPE svg  PUBLIC '-//W3C//DTD SVG 1.1//EN'  'http://www.w3.org/Graphics/SVG/1.1/DTD/svg11.dtd'><svg height="512px" id="Layer_1" style="enable-background:new 0 0 512 512;" version="1.1" viewBox="0 0 512 512" width="512px" xml:space="preserve" xmlns="http://www.w3.org/2000/svg" xmlns:xlink="http://www.w3.org/1999/xlink"><g><path d="M272.239,178.562c-1.026,11.916-7.518,21.55-14.49,21.55c-7.014,0-11.846-9.634-10.82-21.55   c1.026-11.915,7.522-21.591,14.536-21.591C268.437,156.97,273.265,166.646,272.239,178.562z" style="fill:#88D66C;"/><path d="M272.239,178.562c-1.026,11.916-7.518,21.55-14.49,21.55c-7.014,0-11.846-9.634-10.82-21.55   c1.026-11.915,7.522-21.591,14.536-21.591C268.437,156.97,273.265,166.646,272.239,178.562z" style="fill:#88D66C;"/><path d="M272.239,178.562c-1.026,11.916-7.518,21.55-14.49,21.55c-7.014,0-11.846-9.634-10.82-21.55   c1.026-11.915,7.522-21.591,14.536-21.591C268.437,156.97,273.265,166.646,272.239,178.562z" style="fill:#88D66C;"/><path d="M272.239,178.562c-1.026,11.916-7.518,21.55-14.49,21.55c-7.014,0-11.846-9.634-10.82-21.55   c1.026-11.915,7.522-21.591,14.536-21.591C268.437,156.97,273.265,166.646,272.239,178.562z" style="fill:#88D66C;"/><path d="M272.239,178.562c-0.513,5.958-2.392,11.345-5.015,15.243c-2.623,3.898-5.988,6.307-9.474,6.307   c-3.507,0-12.308,1.803-14.265-2.095c-1.956-3.898,2.932-13.497,3.445-19.454c0.513-5.957-6.534-15.411-3.905-19.319   c2.629-3.908,14.934-2.272,18.441-2.272c3.486,0,6.436,2.419,8.386,6.327C271.802,167.206,272.752,172.604,272.239,178.562z" style="fill:#92E674;"/><path d="M268.235,78.38c27.18,0,47.311,31.458,50.336,74.198l13.992-13.903   c-5.498-49.525-29.843-85.224-62.18-85.224c-1.806,0-20.907-0.219-22.699,0c-22.352,2.725-45.294,27.064-55.417,55.904   c-3.003,8.554-4.198,25.811,0,35.787h14.801C218.484,106.239,242.624,78.38,268.235,78.38z" style="fill:#92E674;"/><path d="M263.736,130.604c15.507,0,26.249,21.465,23.967,47.957c-0.155,1.802-0.377,3.576-0.642,5.327   l15.12-15.025c0.241-35.119-15.033-62.217-36.381-62.217c-1.488,0-16.647-0.256-18.117,0c-10.244,1.784-15.388,9.759-19.239,21.596   c-2.826,8.687-14.154,27.165-8.627,43.978h12.468C236.131,148.735,249.452,130.604,263.736,130.604z" style="fill:#92E674;"/><path d="M242.778,212.048c0,0,0,43.707,0,53.484c0,9.776,38.531,21.279,38.531,5.176   c0-12.338-15.414-42.316-15.414-53.21l15.414-0.12c0,0,28.18,4.447,28.18,70.008c0,36.806-33.355,38.532-33.355,38.532   s0,83.389,0,103.517c0,10.627-4.342,18.848-10.465,21.957c-5.475,2.78-16.655,11.772-29.163,4.444   c-11.239-12.687,2.822-85.793,2.822-146.387c0,0-21.854-5.257-21.854-51.967c0-21.317,1.538-39.084,9.022-45.432H242.778z" style="fill:#AAC7D8;"/><path d="M226.496,212.048c0,0,0,44.692,0,54.689c0,9.997,39.399,21.758,39.399,5.293   c0-16.466,0-54.532,0-54.532s28.814,4.547,28.814,71.585c0,37.635-34.107,39.399-34.107,39.399s0,85.267,0,105.849   c0,20.582-15.929,32.339-29.991,16.466c-11.492-12.973-7.645-77.195-7.645-139.155c0,0-22.346-5.376-22.346-53.138   C200.622,224.986,226.496,212.048,226.496,212.048z" style="fill:#D1E5EF;"/><path d="M226.496,212.048c0.206,6.581,0.58,13.162,0.588,19.744l0.25,19.744l0.125,9.872l0.063,4.936   l0.004,0.308l0.001,0.077c-0.013-0.213,0.001-0.015,0.001-0.043l0.017,0.153l0.069,0.613c0.097,0.342,0.177,0.528,0.302,0.841   c0.313,0.616,0.728,1.22,1.237,1.777c2.06,2.242,4.938,3.877,7.828,5.228c2.919,1.358,6.016,2.361,9.158,3.102   c3.145,0.701,6.379,1.149,9.559,0.978c3.12-0.14,6.46-0.972,8.249-3.346c1.821-2.339,1.092-5.893,1.278-9.155l0.066-9.872   c0.014-13.163,0.367-26.325,0.603-39.488l0-0.021l0.001,0c2.846,0.646,5.445,2.113,7.765,3.852   c2.372,1.706,4.369,3.866,6.227,6.109c1.775,2.308,3.431,4.728,4.753,7.332c1.52,2.505,2.438,5.297,3.647,7.953   c0.85,2.787,1.94,5.514,2.595,8.357c0.609,2.85,1.514,5.648,1.88,8.546c0.421,2.885,1.041,5.748,1.297,8.654l0.826,8.713   l0.315,8.743c0.203,2.912-0.009,5.891-0.157,8.764c0.014,1.448-0.398,2.917-0.614,4.378c-0.271,1.46-0.448,2.948-0.982,4.335   c-0.482,1.399-0.839,2.847-1.427,4.206l-1.944,4.012l-2.485,3.712c-0.93,1.16-1.963,2.241-2.944,3.364   c-1.087,1.015-2.228,1.981-3.359,2.952c-1.239,0.823-2.422,1.745-3.714,2.483c-5.172,2.989-10.855,4.924-16.888,5.544l-0.029,0.002   l0.977-1.029l-0.507,36.771l-0.18,36.77l-0.087,18.385l-0.044,9.193c-0.002,3.056,0.025,6.141-0.332,9.194   c-0.763,6.065-3.079,12.226-7.855,16.245c-2.337,1.996-5.389,3.219-8.479,3.132c-3.099-0.04-6.017-1.288-8.57-2.947   c-1.22-0.927-2.491-1.797-3.523-2.942c-0.53-0.555-1.122-1.047-1.601-1.653l-1.269-1.916c-1.557-2.631-2.488-5.622-3.211-8.587   c-1.424-5.969-2.183-12.079-2.671-18.188c-0.554-6.109-0.801-12.24-0.994-18.368c-0.201-6.128-0.288-12.26-0.317-18.39   c-0.082-12.261,0.036-24.52,0.11-36.776l-0.219-36.762l0.828,1.051l-0.013-0.003c-2.649-0.834-4.739-2.197-6.713-3.816   c-1.984-1.583-3.654-3.481-5.192-5.457l-2.103-3.103l-1.807-3.27c-1.012-2.262-2.106-4.505-2.81-6.877   c-0.862-2.326-1.442-4.722-2.007-7.122c-0.662-2.382-0.875-4.84-1.333-7.257c-0.391-2.427-0.502-4.882-0.767-7.322   c-0.254-2.442-0.193-4.895-0.304-7.342c-0.17-2.447,0.088-4.971,0.238-7.353c0.145-2.42,0.703-4.917,1.109-7.339   c0.674-2.376,1.169-4.798,2.136-7.074c0.777-2.342,1.931-4.525,2.998-6.736c1.252-2.117,2.491-4.235,3.988-6.182   c1.453-1.969,3.042-3.842,4.768-5.572C218.324,217.389,222.191,214.322,226.496,212.048z M225.465,213.976   c-3.478,2.141-6.782,4.786-9.619,7.79c-1.651,1.718-3.165,3.571-4.543,5.512c-1.421,1.919-2.584,3.999-3.762,6.071   c-0.992,2.166-2.074,4.294-2.782,6.577c-0.899,2.215-1.329,4.574-1.942,6.877c-0.34,2.357-0.836,4.629-0.939,7.067   c-0.109,2.473-0.3,4.801-0.147,7.217c0.112,2.409,0.052,4.832,0.305,7.228c0.262,2.393,0.372,4.81,0.758,7.182   c0.451,2.358,0.659,4.774,1.307,7.084c0.553,2.335,1.117,4.666,1.952,6.908c0.681,2.3,1.737,4.443,2.706,6.615l1.725,3.116   l1.992,2.935c1.45,1.856,3.015,3.634,4.845,5.088c1.76,1.479,3.87,2.761,5.882,3.396l0.008,0.002l0.059,0.018   c0.445,0.135,0.731,0.544,0.731,0.985c-0.001,24.529-0.62,49.044-0.607,73.536c-0.001,6.123,0.056,12.244,0.227,18.357   c0.162,6.112,0.379,12.228,0.9,18.304c0.454,6.08,1.183,12.151,2.552,18.018c0.732,2.995,1.52,5.66,3.012,8.249l1.26,1.922   c0.3,0.381,0.985,1.006,1.458,1.498c0.993,1.117,2.203,1.944,3.362,2.839c2.427,1.581,5.164,2.71,7.994,2.736   c2.823,0.067,5.595-1.051,7.764-2.92c4.432-3.733,6.675-9.709,7.367-15.483c0.338-2.994,0.297-6.005,0.284-9.098v-9.193v-18.385   v-73.541c0-0.541,0.417-0.985,0.947-1.028l0.031-0.002l0.024-0.002c5.548-0.53,11.14-2.357,16.027-5.156   c1.233-0.691,2.354-1.56,3.539-2.328c1.072-0.914,2.159-1.817,3.196-2.768c0.929-1.058,1.915-2.07,2.804-3.159l2.377-3.495   l1.872-3.798c0.571-1.29,0.917-2.676,1.39-4.008c0.527-1.328,0.694-2.729,0.963-4.109c0.214-1.399,0.628-2.722,0.627-4.207   c0.172-2.959,0.4-5.736,0.219-8.638l-0.248-8.68l-0.755-8.639c-0.233-2.883-0.827-5.713-1.221-8.572   c-0.34-2.875-1.214-5.631-1.794-8.453c-0.625-2.814-1.678-5.496-2.494-8.251c-1.168-2.61-2.05-5.37-3.519-7.824   c-1.275-2.561-2.873-4.928-4.581-7.187c-1.788-2.19-3.709-4.3-5.977-5.954c-2.185-1.686-4.778-3.122-7.265-3.708l1.192-1.018v0.021   v39.488v9.872v4.936c-0.004,1.755-0.402,3.72-1.549,5.258c-2.38,3.125-6.247,3.935-9.567,4.137   c-3.429,0.205-6.799-0.248-10.082-0.953c-3.275-0.75-6.488-1.766-9.556-3.166c-3.048-1.416-6.071-3.048-8.521-5.652   c-0.606-0.655-1.148-1.406-1.582-2.259c-0.204-0.435-0.399-1.04-0.498-1.488l-0.074-0.613l-0.018-0.153l-0.015-0.274v-0.308v-4.936   v-9.872V213.976z" style="fill:#DBEFFA;"/><path d="M260.317,178.562c0,11.916-5.662,21.55-12.633,21.55c-7.014,0-12.676-9.634-12.676-21.55   c0-11.915,5.662-21.591,12.676-21.591C254.655,156.97,260.317,166.646,260.317,178.562z" style="fill:#A7F08D;"/><path d="M260.317,178.562c0,11.916-5.662,21.55-12.633,21.55c-7.014,0-12.676-9.634-12.676-21.55   c0-11.915,5.662-21.591,12.676-21.591C254.655,156.97,260.317,166.646,260.317,178.562z" style="fill:#A7F08D;"/><path d="M260.317,178.562c0,11.916-5.662,21.55-12.633,21.55c-7.014,0-12.676-9.634-12.676-21.55   c0-11.915,5.662-21.591,12.676-21.591C254.655,156.97,260.317,166.646,260.317,178.562z" style="fill:#A7F08D;"/><path d="M260.317,178.562c0,11.916-5.662,21.55-12.633,21.55c-7.014,0-12.676-9.634-12.676-21.55   c0-11.915,5.662-21.591,12.676-21.591C254.655,156.97,260.317,166.646,260.317,178.562z" style="fill:#A7F08D;"/><path d="M260.317,178.562c0,11.916-5.662,21.55-12.633,21.55c-7.014,0-12.676-9.634-12.676-21.55   c0-11.915,5.662-21.591,12.676-21.591C254.655,156.97,260.317,166.646,260.317,178.562z" style="fill:#A7F08D;"/><path d="M247.683,78.38c27.18,0,50.021,31.458,56.728,74.198l12.794-13.903   c-9.764-49.525-37.184-85.224-69.522-85.224c-31.017,0-57.492,32.776-68.246,79.081l12.829,12.61   C200.332,106.239,222.073,78.38,247.683,78.38z" style="fill:#A7F08D;"/><path d="M247.683,130.604c15.507,0,28.098,21.465,28.098,47.957c0,1.802-0.07,3.576-0.184,5.327   l13.826-15.025c-2.784-35.119-20.392-62.217-41.741-62.217c-19.468,0-35.801,22.463-40.683,52.976l12.817,12.598   C221.64,148.735,233.399,130.604,247.683,130.604z" style="fill:#A7F08D;"/><polygon points="289.424,168.864 302.181,168.864 287.061,183.888 275.598,183.888  " style="fill:#88D66C;"/><polygon points="304.411,152.577 317.205,138.674 332.563,138.674 318.571,152.577  " style="fill:#88D66C;"/></g></svg>