<?xml version="1.0" ?><!DOCTYPE svg  PUBLIC '-//W3C//DTD SVG 1.1//EN'  'http://www.w3.org/Graphics/SVG/1.1/DTD/svg11.dtd'><svg height="512px" id="Layer_1" style="enable-background:new 0 0 512 512;" version="1.1" viewBox="0 0 512 512" width="512px" xml:space="preserve" xmlns="http://www.w3.org/2000/svg" xmlns:xlink="http://www.w3.org/1999/xlink"><g><path d="M329.001,102.958c-24.037-10.173-55.375-6.651-89.604,13.112   C163.856,159.683,102.4,266.127,102.4,353.354c0,39.354,12.509,68.175,33.179,83.952c11.379,8.687,42.635,25.159,42.635,25.159   s38.488-16.914,61.182-30.016c75.539-43.613,136.996-150.059,136.996-237.285c0-29.44-5.447-68.531-5.447-68.531   S340.108,107.658,329.001,102.958z" style="fill:#FF7A54;"/><path d="M272.602,144.976c-70.891,40.93-128.566,140.823-128.566,222.683   c0,81.859,57.675,115.157,128.566,74.228c70.892-40.931,128.567-140.825,128.567-222.683   C401.169,137.344,343.494,104.047,272.602,144.976z" style="fill:#FFFFFF;"/><path d="M272.234,149.654l3.356,143.777l82.333-146.914C357.922,146.516,347.424,120.497,272.234,149.654z" style="fill:#00BEFF;"/><path d="M272.604,135.239c-75.541,43.613-136.997,150.059-136.997,237.285   c0,87.226,61.456,122.708,136.997,79.095C348.144,408.007,409.6,301.56,409.6,214.334   C409.6,127.108,348.144,91.626,272.604,135.239z M272.604,432.15c-66.349,38.307-120.135,7.253-120.135-69.36   c0-76.613,53.786-169.773,120.135-208.08c66.348-38.308,120.135-7.254,120.135,69.359S338.952,393.844,272.604,432.15z" style="fill:#FF5525;"/><g><path d="M272.234,160.65c-3.491,2.016-6.322,6.92-6.322,10.952v29.204c0,4.032,2.831,5.667,6.322,3.651    c3.493-2.016,6.324-6.92,6.324-10.953v-29.204C278.557,160.27,275.726,158.634,272.234,160.65z" style="fill:#053B58;"/><path d="M189.044,334.798L163.752,349.4c-3.491,2.017-6.322,6.92-6.322,10.952    c0,4.032,2.831,5.667,6.322,3.651l25.292-14.603c3.491-2.016,6.322-6.919,6.322-10.951    C195.366,334.417,192.535,332.782,189.044,334.798z" style="fill:#053B58;"/><path d="M272.972,382.403c-3.491,2.016-6.322,6.918-6.322,10.951v29.204c0,4.032,2.831,5.667,6.322,3.651    c3.493-2.016,6.323-6.919,6.323-10.952v-29.204C279.295,382.02,276.465,380.385,272.972,382.403z" style="fill:#053B58;"/><path d="M381.455,222.856l-25.292,14.603c-3.493,2.016-6.322,6.918-6.322,10.95    c0,4.033,2.829,5.666,6.322,3.65l25.292-14.601c3.491-2.016,6.322-6.92,6.322-10.953    C387.777,222.475,384.946,220.84,381.455,222.856z" style="fill:#053B58;"/><path d="M195.723,244.483c-1.234-0.712-3.235,0.444-4.47,2.582c-1.234,2.139-1.234,4.45,0,5.162    l10.184,5.881c1.234,0.712,3.235-0.444,4.471-2.582c1.233-2.139,1.233-4.449,0-5.162L195.723,244.483z" style="fill:#053B58;"/><path d="M201.959,411.23l-10.184,17.639c-1.234,2.138-1.234,4.449,0,5.161    c1.236,0.714,3.237-0.443,4.47-2.581l10.185-17.639c1.236-2.139,1.236-4.45,0-5.162    C205.196,407.935,203.194,409.092,201.959,411.23z" style="fill:#053B58;"/><path d="M343.77,328.751c-1.234-0.712-3.237,0.444-4.471,2.582c-1.237,2.139-1.237,4.45,0,5.163    l10.183,5.879c1.236,0.714,3.237-0.442,4.472-2.58c1.234-2.14,1.234-4.451,0-5.163L343.77,328.751z" style="fill:#053B58;"/><path d="M348.961,155.409l-10.186,17.639c-1.232,2.138-1.232,4.449,0,5.163    c1.237,0.712,3.238-0.443,4.474-2.581l10.183-17.639c1.235-2.139,1.235-4.451,0-5.163    C352.197,152.115,350.196,153.271,348.961,155.409z" style="fill:#053B58;"/></g><path d="M282.272,309.425c7.156-17.999,35.95-127.95,35.95-127.95s-54.295,89.179-62.56,109.965   L282.272,309.425z" style="fill:#383838;"/><path d="M272.604,269.093c-11.64,6.72-21.076,23.063-21.076,36.504c0,13.441,9.437,18.889,21.076,12.169   c11.64-6.721,21.076-23.065,21.076-36.505C293.68,267.82,284.244,262.372,272.604,269.093z" style="fill:#595959;"/><g><path d="M245.726,123.579c0,2.512,1.668,5.02,4.981,6.943c6.65,3.832,17.418,3.832,24.06,0    c3.32-1.924,4.985-4.432,4.985-6.943V69.133h-34.026V123.579z" style="fill:#6C6C6C;"/></g><path d="M222.133,89.688c0,5.998,3.982,11.985,11.893,16.578c15.877,9.15,41.588,9.15,57.447,0   c7.929-4.593,11.903-10.581,11.903-16.578V65.994h-81.243V89.688z" style="fill:#45A700;"/><path d="M291.389,48.602c-15.878-9.168-41.588-9.168-57.446,0c-15.869,9.149-15.869,24,0,33.159   c15.858,9.158,41.568,9.158,57.446,0C307.248,72.602,307.248,57.751,291.389,48.602z" style="fill:#7CD400;"/></g></svg>