<?xml version="1.0" ?><!DOCTYPE svg  PUBLIC '-//W3C//DTD SVG 1.1//EN'  'http://www.w3.org/Graphics/SVG/1.1/DTD/svg11.dtd'><svg enable-background="new 0 0 129 129" id="Layer_1" version="1.1" viewBox="0 0 129 129" xml:space="preserve" xmlns="http://www.w3.org/2000/svg" xmlns:xlink="http://www.w3.org/1999/xlink"><g><g><g enable-background="new    "><defs><path d="M128.5,79.5l0,12c0,0.9-0.6,1.8-1.7,2.4l0-12      C127.9,81.2,128.5,80.4,128.5,79.5z" enable-background="new    " id="SVGID_735_"/></defs><clipPath id="SVGID_2_"><use overflow="visible" xlink:href="#SVGID_735_"/></clipPath><g clip-path="url(#SVGID_2_)" enable-background="new    "><path d="M128.5,79.5l0,12c0,0,0,0,0,0.1L128.5,79.5C128.5,79.5,128.5,79.5,128.5,79.5" fill="#747474"/><path d="M128.5,79.5l0,12c0,0.1,0,0.2,0,0.3l0-12C128.5,79.8,128.5,79.7,128.5,79.5" fill="#787878"/><path d="M128.5,79.9l0,12c0,0.1-0.1,0.2-0.1,0.3l0-12C128.4,80.1,128.4,80,128.5,79.9" fill="#7C7C7C"/><path d="M128.4,80.2l0,12c0,0.1-0.1,0.2-0.2,0.3l0-12C128.3,80.4,128.3,80.3,128.4,80.2" fill="#808080"/><path d="M128.2,80.6l0,12c-0.1,0.1-0.1,0.2-0.2,0.4l0-12C128.1,80.8,128.1,80.7,128.2,80.6" fill="#848484"/><path d="M128,80.9l0,12c-0.1,0.1-0.2,0.3-0.4,0.4l0-12C127.7,81.2,127.9,81,128,80.9" fill="#888888"/><path d="M127.6,81.3l0,12c-0.2,0.2-0.5,0.4-0.8,0.6l0-12C127.1,81.7,127.4,81.5,127.6,81.3" fill="#8C8C8C"/><path d="M126.8,81.9l0,12c0,0,0,0-0.1,0L126.8,81.9C126.8,81.9,126.8,81.9,126.8,81.9" fill="#909090"/></g></g><g enable-background="new    "><defs><path d="M0.5,91.4l0-12c0,0.9,0.6,1.8,1.8,2.5l0,12C1.1,93.2,0.5,92.3,0.5,91.4z" enable-background="new    " id="SVGID_737_"/></defs><clipPath id="SVGID_4_"><use overflow="visible" xlink:href="#SVGID_737_"/></clipPath><g clip-path="url(#SVGID_4_)" enable-background="new    "><path d="M2.3,81.9l0,12c-1.2-0.7-1.8-1.6-1.8-2.5l0-12C0.5,80.3,1.1,81.2,2.3,81.9" fill="#686868"/></g></g><g><polygon fill="#9A9A9A" points="126.8,81.9 126.7,93.9 68.9,127.5 68.9,115.5    "/></g><g><polygon fill="#6B6B6B" points="60.5,115.5 60.5,127.5 2.3,93.9 2.3,81.9    "/></g><g enable-background="new    "><defs><path d="M68.9,115.5l0,12c-2.3,1.3-6.1,1.3-8.4,0l0-12      C62.8,116.9,66.6,116.9,68.9,115.5z" enable-background="new    " id="SVGID_739_"/></defs><clipPath id="SVGID_6_"><use overflow="visible" xlink:href="#SVGID_739_"/></clipPath><g clip-path="url(#SVGID_6_)" enable-background="new    "><path d="M68.9,115.5l0,12c-0.4,0.2-0.8,0.4-1.3,0.6l0-12C68.1,115.9,68.5,115.7,68.9,115.5" fill="#909090"/><path d="M67.6,116.1l0,12c-0.4,0.1-0.7,0.2-1.1,0.3l0-12C66.9,116.3,67.3,116.2,67.6,116.1" fill="#8C8C8C"/><path d="M66.5,116.4l0,12c-0.3,0-0.5,0.1-0.8,0.1l0-12C66,116.5,66.2,116.4,66.5,116.4" fill="#888888"/><path d="M65.7,116.5l0,12c-0.2,0-0.4,0-0.7,0l0-12C65.3,116.5,65.5,116.5,65.7,116.5" fill="#848484"/><path d="M65.1,116.5l0,12c-0.2,0-0.4,0-0.6,0l0-12C64.7,116.5,64.9,116.5,65.1,116.5" fill="#808080"/><path d="M64.5,116.5l0,12c-0.2,0-0.4,0-0.6,0l0-12C64.1,116.5,64.3,116.5,64.5,116.5" fill="#7C7C7C"/><path d="M63.9,116.5l0,12c-0.2,0-0.4,0-0.6-0.1l0-12C63.5,116.5,63.7,116.5,63.9,116.5" fill="#787878"/><path d="M63.3,116.4l0,12c-0.2,0-0.4-0.1-0.6-0.1l0-12C62.9,116.4,63.1,116.4,63.3,116.4" fill="#747474"/><path d="M62.7,116.3l0,12c-0.2,0-0.4-0.1-0.6-0.2l0-12C62.3,116.2,62.5,116.3,62.7,116.3" fill="#707070"/><path d="M62.1,116.2l0,12c-0.2-0.1-0.5-0.2-0.7-0.2l0-12C61.6,116,61.8,116.1,62.1,116.2" fill="#6C6C6C"/><path d="M61.4,115.9l0,12c-0.3-0.1-0.6-0.3-0.9-0.4l0-12C60.8,115.7,61.1,115.8,61.4,115.9" fill="#686868"/></g></g><g><path d="M126.7,77c2.3,1.3,2.3,3.5,0,4.9l-57.8,33.6c-2.3,1.3-6.1,1.3-8.4,0L2.3,81.9c-2.3-1.3-2.3-3.5,0-4.9     l57.8-33.6c2.3-1.3,6.1-1.3,8.4,0L126.7,77z" fill="#C8C8C8"/></g></g><g><polygon fill="#848484" points="88.2,67.8 73.5,59.2 73.5,50.5 88.2,59.1   "/><g enable-background="new    "><defs><path d="M73.5,50.5c2.8-3.9,4.6-8.8,4.6-13c4.9,2.9,9.8,5.7,14.7,8.6      c0,4.3-1.8,9.1-4.6,13C83.8,56.5,77.9,53.1,73.5,50.5z" enable-background="new    " id="SVGID_741_"/></defs><clipPath id="SVGID_8_"><use overflow="visible" xlink:href="#SVGID_741_"/></clipPath><path clip-path="url(#SVGID_8_)" d="M88.2,59.1l-14.7-8.6c0,0,0.1-0.1,0.1-0.1L88.3,59C88.3,59,88.3,59,88.2,59.1     " fill="#B7B7B7"/><path clip-path="url(#SVGID_8_)" d="M88.3,59l-14.7-8.6c0.2-0.3,0.4-0.6,0.6-1L89,58C88.7,58.3,88.5,58.6,88.3,59     " fill="#B2B2B2"/><path clip-path="url(#SVGID_8_)" d="M89,58l-14.7-8.6c0.2-0.3,0.4-0.6,0.6-0.9l14.7,8.6     C89.3,57.4,89.2,57.7,89,58" fill="#ADADAD"/><path clip-path="url(#SVGID_8_)" d="M89.5,57.1l-14.7-8.6c0.2-0.3,0.4-0.6,0.5-0.9L90,56.1     C89.9,56.4,89.7,56.8,89.5,57.1" fill="#A8A8A8"/><path clip-path="url(#SVGID_8_)" d="M90,56.1l-14.7-8.6c0.2-0.3,0.3-0.6,0.5-0.9l14.7,8.6     C90.4,55.5,90.2,55.8,90,56.1" fill="#A3A3A3"/><path clip-path="url(#SVGID_8_)" d="M90.5,55.2l-14.7-8.6c0.2-0.3,0.3-0.6,0.4-1L91,54.2     C90.8,54.5,90.7,54.9,90.5,55.2" fill="#9E9E9E"/><path clip-path="url(#SVGID_8_)" d="M91,54.2l-14.7-8.6c0.1-0.3,0.3-0.7,0.4-1l14.7,8.6     C91.2,53.6,91.1,53.9,91,54.2" fill="#999999"/><path clip-path="url(#SVGID_8_)" d="M91.4,53.2l-14.7-8.6c0.1-0.3,0.3-0.7,0.4-1l14.7,8.6     C91.6,52.5,91.5,52.9,91.4,53.2" fill="#949494"/><path clip-path="url(#SVGID_8_)" d="M91.7,52.2L77,43.6c0.1-0.4,0.2-0.8,0.3-1.1l14.7,8.6     C92,51.4,91.9,51.8,91.7,52.2" fill="#8F8F8F"/><path clip-path="url(#SVGID_8_)" d="M92.1,51.1l-14.7-8.6c0.1-0.4,0.2-0.8,0.3-1.3l14.7,8.6     C92.3,50.2,92.2,50.6,92.1,51.1" fill="#8A8A8A"/><path clip-path="url(#SVGID_8_)" d="M92.4,49.8l-14.7-8.6c0.1-0.5,0.2-1,0.3-1.6l14.7,8.6     C92.6,48.7,92.5,49.3,92.4,49.8" fill="#858585"/><path clip-path="url(#SVGID_8_)" d="M92.7,48.2l-14.7-8.6c0.1-0.7,0.1-1.5,0.1-2.2c0-3.5-1.2-6-3.2-7.1L89.6,39     c2,1.2,3.2,3.6,3.2,7.1C92.8,46.8,92.8,47.5,92.7,48.2" fill="#808080"/></g><polygon fill="#AD2B57" points="75.3,87.4 60.6,78.9 60.6,66.7 75.3,75.2   "/><g enable-background="new    "><defs><path d="M67,56.7c2.4-1.4,4.6-3.6,6.5-6.1c4.3,2.5,8.7,5,13,7.6l1.7,1      c-1.8,2.6-4.1,4.7-6.5,6.1C76.8,62.4,71.9,59.5,67,56.7c4.9,2.9,9.8,5.7,14.7,8.6c-2.4,1.4-4.6,1.8-6.5,1.3L60.5,58      C62.4,58.4,64.6,58,67,56.7z" enable-background="new    " id="SVGID_743_"/></defs><clipPath id="SVGID_10_"><use overflow="visible" xlink:href="#SVGID_743_"/></clipPath><path clip-path="url(#SVGID_10_)" d="M75.3,66.6L60.5,58c0.1,0,0.3,0.1,0.4,0.1l14.7,8.6     C75.6,66.6,75.4,66.6,75.3,66.6" fill="#8C2C47"/><path clip-path="url(#SVGID_10_)" d="M75.7,66.6l-14.7-8.6c0.2,0,0.4,0.1,0.7,0.1l14.7,8.6     C76.1,66.7,75.9,66.7,75.7,66.6" fill="#902D4A"/><path clip-path="url(#SVGID_10_)" d="M76.4,66.7l-14.7-8.6c0.2,0,0.5,0,0.7,0l14.7,8.6     C76.8,66.7,76.6,66.7,76.4,66.7" fill="#942F4C"/><path clip-path="url(#SVGID_10_)" d="M77.1,66.7l-14.7-8.6c0.3,0,0.5,0,0.8-0.1l14.7,8.6     C77.6,66.7,77.4,66.7,77.1,66.7" fill="#98304E"/><path clip-path="url(#SVGID_10_)" d="M77.9,66.7l-14.7-8.6c0.3,0,0.6-0.1,1-0.2l14.7,8.6     C78.6,66.5,78.2,66.6,77.9,66.7" fill="#9D3150"/><path clip-path="url(#SVGID_10_)" d="M78.9,66.4l-14.7-8.6c0.4-0.1,0.9-0.3,1.3-0.4L80.2,66     C79.7,66.2,79.3,66.3,78.9,66.4" fill="#A13352"/><path clip-path="url(#SVGID_10_)" d="M80.2,66l-14.7-8.6c0.5-0.2,1-0.5,1.6-0.8c1.3-0.8,2.6-1.7,3.7-2.9l14.7,8.6     c-1.2,1.2-2.4,2.1-3.7,2.9C81.2,65.5,80.7,65.8,80.2,66" fill="#A53454"/><path clip-path="url(#SVGID_10_)" d="M85.5,62.3l-14.7-8.6c0.4-0.4,0.8-0.8,1.2-1.3L86.7,61     C86.3,61.5,85.9,61.9,85.5,62.3" fill="#A13352"/><path clip-path="url(#SVGID_10_)" d="M86.7,61l-14.7-8.6c0.3-0.4,0.6-0.7,0.9-1.1L87.6,60     C87.3,60.3,87,60.7,86.7,61" fill="#9D3150"/><path clip-path="url(#SVGID_10_)" d="M87.6,60l-14.7-8.6c0.2-0.3,0.4-0.6,0.6-0.9l14.7,8.6     C88,59.4,87.8,59.7,87.6,60" fill="#98304E"/></g><g enable-background="new    "><defs><path d="M67,51.3c1.8-1,3.4-2.8,4.6-4.8c4.9,2.9,9.8,5.7,14.7,8.6      c-1.2,2-2.8,3.8-4.6,4.8C77.3,57.3,71.4,53.9,67,51.3z" enable-background="new    " id="SVGID_745_"/></defs><clipPath id="SVGID_12_"><use overflow="visible" xlink:href="#SVGID_745_"/></clipPath><path clip-path="url(#SVGID_12_)" d="M81.7,59.9L67,51.3c0.8-0.4,1.5-1,2.2-1.7l14.7,8.6     C83.2,58.9,82.5,59.5,81.7,59.9" fill="#C25272"/><path clip-path="url(#SVGID_12_)" d="M83.9,58.2l-14.7-8.6c0.2-0.2,0.5-0.5,0.7-0.8l14.7,8.6     C84.4,57.7,84.2,58,83.9,58.2" fill="#BD506F"/><path clip-path="url(#SVGID_12_)" d="M84.6,57.5l-14.7-8.6c0.2-0.2,0.4-0.4,0.5-0.6l14.7,8.6     C85,57.1,84.8,57.3,84.6,57.5" fill="#B84E6C"/><path clip-path="url(#SVGID_12_)" d="M85.1,56.8l-14.7-8.6c0.1-0.2,0.3-0.4,0.4-0.6l14.7,8.6     C85.4,56.5,85.3,56.7,85.1,56.8" fill="#B34B69"/><path clip-path="url(#SVGID_12_)" d="M85.6,56.3l-14.7-8.6c0.1-0.2,0.3-0.4,0.4-0.6l14.7,8.6     C85.8,55.9,85.7,56.1,85.6,56.3" fill="#AE4966"/><path clip-path="url(#SVGID_12_)" d="M85.9,55.7l-14.7-8.6c0.1-0.2,0.2-0.4,0.3-0.5l14.7,8.6     C86.2,55.3,86.1,55.5,85.9,55.7" fill="#A94763"/><path clip-path="url(#SVGID_12_)" d="M86.3,55.2l-14.7-8.6c0.1-0.2,0.2-0.4,0.3-0.5l14.7,8.6     C86.5,54.8,86.4,55,86.3,55.2" fill="#A54561"/></g><polygon fill="#6E2338" points="75.3,75.2 60.6,66.7 60.5,58 75.3,66.6   "/><path d="M75.3,66.6c1.8,0.5,4.1,0.1,6.5-1.3c2.4-1.4,4.6-3.6,6.5-6.1l0,8.7l0,12.2l-6.6-2.3l-6.4,9.8l0-12.2    L75.3,66.6z" fill="#CE4169"/><g enable-background="new    "><defs><path d="M73.5,40.2c0-2-0.7-3.5-1.9-4.2l14.7,8.6c1.2,0.7,1.9,2.1,1.9,4.2      c0,2.1-0.7,4.3-1.9,6.4c-4.9-2.9-9.8-5.7-14.7-8.6C72.7,44.5,73.5,42.2,73.5,40.2z" enable-background="new    " id="SVGID_747_"/></defs><clipPath id="SVGID_14_"><use overflow="visible" xlink:href="#SVGID_747_"/></clipPath><path clip-path="url(#SVGID_14_)" d="M86.3,55.2l-14.7-8.6c0.1-0.2,0.2-0.4,0.3-0.5l14.7,8.6     C86.5,54.8,86.4,55,86.3,55.2" fill="#A54561"/><path clip-path="url(#SVGID_14_)" d="M86.6,54.6L71.8,46c0.1-0.2,0.2-0.4,0.3-0.6l14.7,8.6     C86.8,54.2,86.7,54.4,86.6,54.6" fill="#A0435E"/><path clip-path="url(#SVGID_14_)" d="M86.9,54.1l-14.7-8.6c0.1-0.2,0.2-0.4,0.3-0.6l14.7,8.6     C87,53.7,87,53.9,86.9,54.1" fill="#9B415B"/><path clip-path="url(#SVGID_14_)" d="M87.1,53.5l-14.7-8.6c0.1-0.2,0.2-0.4,0.2-0.6l14.7,8.6     C87.3,53.1,87.2,53.3,87.1,53.5" fill="#963F58"/><path clip-path="url(#SVGID_14_)" d="M87.4,52.9l-14.7-8.6c0.1-0.2,0.2-0.4,0.2-0.6l14.7,8.6     C87.5,52.5,87.4,52.7,87.4,52.9" fill="#913D55"/><path clip-path="url(#SVGID_14_)" d="M87.6,52.3l-14.7-8.6c0.1-0.2,0.1-0.4,0.2-0.7l14.7,8.6     C87.7,51.9,87.7,52.1,87.6,52.3" fill="#8C3B52"/><path clip-path="url(#SVGID_14_)" d="M87.8,51.6L73,43.1c0.1-0.2,0.1-0.5,0.2-0.7L88,50.9     C87.9,51.1,87.8,51.4,87.8,51.6" fill="#883950"/><path clip-path="url(#SVGID_14_)" d="M88,50.9l-14.7-8.6c0.1-0.3,0.1-0.6,0.2-0.9L88.1,50     C88.1,50.3,88,50.6,88,50.9" fill="#83374D"/><path clip-path="url(#SVGID_14_)" d="M88.1,50l-14.7-8.6c0.1-0.4,0.1-0.9,0.1-1.3c0-2-0.7-3.5-1.9-4.2l14.7,8.6     c1.2,0.7,1.9,2.1,1.9,4.2C88.2,49.1,88.2,49.6,88.1,50" fill="#7E354A"/></g><g enable-background="new    "><defs><path d="M59.1,57.4c0.4,0.3,0.9,0.4,1.4,0.6l14.7,8.6c-0.5-0.1-1-0.3-1.4-0.6      C69.4,63.4,63.5,60,59.1,57.4z" enable-background="new    " id="SVGID_749_"/></defs><clipPath id="SVGID_16_"><use overflow="visible" xlink:href="#SVGID_749_"/></clipPath><path clip-path="url(#SVGID_16_)" d="M73.9,66l-14.7-8.6c0,0,0,0,0.1,0L73.9,66C73.9,66,73.9,66,73.9,66" fill="#999999"/><path clip-path="url(#SVGID_16_)" d="M73.9,66l-14.7-8.6c0.2,0.1,0.4,0.2,0.6,0.3l14.7,8.6     C74.3,66.2,74.1,66.1,73.9,66" fill="#9E9E9E"/><path clip-path="url(#SVGID_16_)" d="M74.5,66.3l-14.7-8.6c0.2,0.1,0.4,0.1,0.6,0.2l14.7,8.6     C74.9,66.4,74.7,66.4,74.5,66.3" fill="#A3A3A3"/><path clip-path="url(#SVGID_16_)" d="M75.1,66.5l-14.7-8.6c0.1,0,0.1,0,0.2,0.1l14.7,8.6     C75.2,66.5,75.1,66.5,75.1,66.5" fill="#A8A8A8"/></g><g enable-background="new    "><defs><path d="M62.4,51.8c1.2,0.7,2.8,0.6,4.6-0.5l14.7,8.6c-1.8,1-3.4,1.1-4.6,0.5      C72.7,57.8,66.8,54.4,62.4,51.8z" enable-background="new    " id="SVGID_751_"/></defs><clipPath id="SVGID_18_"><use overflow="visible" xlink:href="#SVGID_751_"/></clipPath><path clip-path="url(#SVGID_18_)" d="M77.1,60.4l-14.7-8.6c0,0,0,0,0,0L77.1,60.4C77.2,60.4,77.2,60.4,77.1,60.4" fill="#963F58"/><path clip-path="url(#SVGID_18_)" d="M77.2,60.4l-14.7-8.6c0.1,0.1,0.2,0.1,0.3,0.2l14.7,8.6     C77.4,60.5,77.3,60.4,77.2,60.4" fill="#9B415B"/><path clip-path="url(#SVGID_18_)" d="M77.5,60.5L62.8,52c0.1,0,0.2,0.1,0.3,0.1l14.7,8.6     C77.7,60.6,77.6,60.6,77.5,60.5" fill="#A0435E"/><path clip-path="url(#SVGID_18_)" d="M77.8,60.7l-14.7-8.6c0.1,0,0.2,0.1,0.4,0.1l14.7,8.6     C78.1,60.7,78,60.7,77.8,60.7" fill="#A54561"/><path clip-path="url(#SVGID_18_)" d="M78.2,60.7l-14.7-8.6c0.1,0,0.3,0,0.4,0l14.7,8.6     C78.5,60.8,78.3,60.8,78.2,60.7" fill="#A94763"/><path clip-path="url(#SVGID_18_)" d="M78.6,60.8l-14.7-8.6c0.1,0,0.3,0,0.4,0L79,60.8     C78.9,60.8,78.7,60.8,78.6,60.8" fill="#AE4966"/><path clip-path="url(#SVGID_18_)" d="M79,60.8l-14.7-8.6c0.2,0,0.3,0,0.5,0l14.7,8.6C79.3,60.8,79.2,60.8,79,60.8     " fill="#B34B69"/><path clip-path="url(#SVGID_18_)" d="M79.5,60.7l-14.7-8.6c0.2,0,0.4-0.1,0.6-0.1l14.7,8.6     C79.9,60.7,79.7,60.7,79.5,60.7" fill="#B84E6C"/><path clip-path="url(#SVGID_18_)" d="M80.1,60.6l-14.7-8.6c0.2-0.1,0.5-0.2,0.8-0.3l14.7,8.6     C80.6,60.5,80.3,60.6,80.1,60.6" fill="#BD506F"/><path clip-path="url(#SVGID_18_)" d="M80.8,60.4l-14.7-8.6c0.3-0.1,0.6-0.3,0.9-0.5l14.7,8.6     C81.4,60.1,81.1,60.2,80.8,60.4" fill="#C25272"/></g><g enable-background="new    "><defs><path d="M78.1,37.5c0-3.5-1.2-6-3.2-7.1L89.6,39c2,1.2,3.2,3.6,3.2,7.1      C87.9,43.2,83,40.4,78.1,37.5z" enable-background="new    " id="SVGID_753_"/></defs><clipPath id="SVGID_20_"><use overflow="visible" xlink:href="#SVGID_753_"/></clipPath><path clip-path="url(#SVGID_20_)" d="M92.7,48.2l-14.7-8.6c0.1-0.7,0.1-1.5,0.1-2.2c0-3.5-1.2-6-3.2-7.1L89.6,39     c2,1.2,3.2,3.6,3.2,7.1C92.8,46.8,92.8,47.5,92.7,48.2" fill="#808080"/></g><g enable-background="new    "><defs><path d="M71.6,36l14.7,8.6c-1.2-0.7-2.8-0.6-4.6,0.5L67,36.5      C68.8,35.4,70.4,35.3,71.6,36z" enable-background="new    " id="SVGID_755_"/></defs><clipPath id="SVGID_22_"><use overflow="visible" xlink:href="#SVGID_755_"/></clipPath><path clip-path="url(#SVGID_22_)" d="M81.7,45L67,36.5c0.3-0.2,0.6-0.3,0.9-0.5l14.7,8.6     C82.3,44.7,82,44.9,81.7,45" fill="#B7415F"/><path clip-path="url(#SVGID_22_)" d="M82.6,44.6L67.9,36c0.3-0.1,0.5-0.2,0.8-0.3l14.7,8.6     C83.1,44.4,82.9,44.5,82.6,44.6" fill="#B33F5D"/><path clip-path="url(#SVGID_22_)" d="M83.4,44.3l-14.7-8.6c0.2-0.1,0.4-0.1,0.6-0.1l14.7,8.6     C83.8,44.2,83.6,44.3,83.4,44.3" fill="#AE3E5A"/><path clip-path="url(#SVGID_22_)" d="M83.9,44.2l-14.7-8.6c0.2,0,0.3,0,0.5,0l14.7,8.6     C84.3,44.2,84.1,44.2,83.9,44.2" fill="#A93C58"/><path clip-path="url(#SVGID_22_)" d="M84.4,44.1l-14.7-8.6c0.1,0,0.3,0,0.4,0l14.7,8.6     C84.7,44.1,84.6,44.1,84.4,44.1" fill="#A53A56"/><path clip-path="url(#SVGID_22_)" d="M84.9,44.1l-14.7-8.6c0.1,0,0.3,0,0.4,0l14.7,8.6     C85.1,44.2,85,44.2,84.9,44.1" fill="#A03953"/><path clip-path="url(#SVGID_22_)" d="M85.2,44.2l-14.7-8.6c0.1,0,0.2,0,0.4,0.1l14.7,8.6     C85.5,44.2,85.4,44.2,85.2,44.2" fill="#9C3751"/><path clip-path="url(#SVGID_22_)" d="M85.6,44.3l-14.7-8.6c0.1,0,0.2,0.1,0.3,0.1L86,44.4     C85.8,44.4,85.7,44.3,85.6,44.3" fill="#97354F"/><path clip-path="url(#SVGID_22_)" d="M86,44.4l-14.7-8.6c0.1,0,0.2,0.1,0.3,0.2l14.7,8.6     C86.2,44.5,86.1,44.4,86,44.4" fill="#93344C"/><path clip-path="url(#SVGID_22_)" d="M86.3,44.6L71.5,36c0,0,0,0,0,0L86.3,44.6C86.3,44.6,86.3,44.6,86.3,44.6" fill="#8E324A"/></g><polygon fill="#848484" points="93.1,28.3 78.4,19.7 78.4,14.6 93.1,23.2   "/><g enable-background="new    "><defs><path d="M77.1,60.4l-14.7-8.6c-1.2-0.7-1.9-2.1-1.9-4.2c0-4.1,2.9-9.1,6.5-11.2      L81.7,45c-3.6,2.1-6.5,7.1-6.5,11.2C75.3,58.3,76,59.7,77.1,60.4z" enable-background="new    " id="SVGID_757_"/></defs><clipPath id="SVGID_24_"><use overflow="visible" xlink:href="#SVGID_757_"/></clipPath><path clip-path="url(#SVGID_24_)" d="M77.1,60.4l-14.7-8.6c-1.2-0.7-1.9-2.1-1.9-4.2c0-0.4,0-0.8,0.1-1.3     l14.7,8.6c-0.1,0.4-0.1,0.9-0.1,1.3C75.3,58.3,76,59.7,77.1,60.4" fill="#772A3E"/><path clip-path="url(#SVGID_24_)" d="M75.3,54.9l-14.7-8.6c0-0.3,0.1-0.6,0.2-0.9L75.5,54     C75.4,54.3,75.4,54.6,75.3,54.9" fill="#7C2C40"/><path clip-path="url(#SVGID_24_)" d="M75.5,54l-14.7-8.6c0.1-0.2,0.1-0.5,0.2-0.7l14.7,8.6     C75.6,53.5,75.5,53.8,75.5,54" fill="#802D43"/><path clip-path="url(#SVGID_24_)" d="M75.7,53.3l-14.7-8.6c0.1-0.2,0.1-0.4,0.2-0.7l14.7,8.6     C75.8,52.9,75.7,53.1,75.7,53.3" fill="#852F45"/><path clip-path="url(#SVGID_24_)" d="M75.9,52.6l-14.7-8.6c0.1-0.2,0.1-0.4,0.2-0.6L76.1,52     C76,52.2,75.9,52.4,75.9,52.6" fill="#893147"/><path clip-path="url(#SVGID_24_)" d="M76.1,52l-14.7-8.6c0.1-0.2,0.2-0.4,0.2-0.6l14.7,8.6     C76.2,51.6,76.2,51.8,76.1,52" fill="#8E324A"/><path clip-path="url(#SVGID_24_)" d="M76.3,51.4l-14.7-8.6c0.1-0.2,0.2-0.4,0.3-0.6l14.7,8.6     C76.5,51.1,76.4,51.3,76.3,51.4" fill="#93344C"/><path clip-path="url(#SVGID_24_)" d="M76.6,50.9l-14.7-8.6c0.1-0.2,0.2-0.4,0.3-0.6l14.7,8.6     C76.8,50.5,76.7,50.7,76.6,50.9" fill="#97354F"/><path clip-path="url(#SVGID_24_)" d="M76.9,50.3l-14.7-8.6c0.1-0.2,0.2-0.4,0.3-0.5l14.7,8.6     C77.1,50,77,50.2,76.9,50.3" fill="#9C3751"/><path clip-path="url(#SVGID_24_)" d="M77.2,49.8l-14.7-8.6c0.1-0.2,0.2-0.4,0.3-0.5l14.7,8.6     C77.4,49.4,77.3,49.6,77.2,49.8" fill="#A03953"/><path clip-path="url(#SVGID_24_)" d="M77.5,49.2l-14.7-8.6c0.1-0.2,0.2-0.4,0.4-0.6l14.7,8.6     C77.7,48.9,77.6,49.1,77.5,49.2" fill="#A53A56"/><path clip-path="url(#SVGID_24_)" d="M77.9,48.7l-14.7-8.6c0.1-0.2,0.3-0.4,0.4-0.6l14.7,8.6     C78.2,48.3,78,48.5,77.9,48.7" fill="#A93C58"/><path clip-path="url(#SVGID_24_)" d="M78.3,48.1l-14.7-8.6c0.2-0.2,0.3-0.4,0.5-0.6l14.7,8.6     C78.7,47.7,78.5,47.9,78.3,48.1" fill="#AE3E5A"/><path clip-path="url(#SVGID_24_)" d="M78.8,47.5l-14.7-8.6c0.2-0.3,0.5-0.5,0.7-0.8l14.7,8.6     C79.3,46.9,79.1,47.2,78.8,47.5" fill="#B33F5D"/><path clip-path="url(#SVGID_24_)" d="M79.5,46.7l-14.7-8.6c0.7-0.7,1.4-1.2,2.2-1.7L81.7,45     C80.9,45.5,80.2,46,79.5,46.7" fill="#B7415F"/></g><path d="M81.7,45c3.6-2.1,6.5-0.4,6.5,3.7c0,4.1-2.9,9.1-6.5,11.2c-3.6,2.1-6.5,0.4-6.5-3.7    C75.2,52.1,78.1,47.1,81.7,45z" fill="#E55177"/><g enable-background="new    "><defs><path d="M74.8,30.4L89.6,39c-2-1.2-4.8-1-7.9,0.8l-14.7-8.6      C70,29.4,72.8,29.2,74.8,30.4z" enable-background="new    " id="SVGID_759_"/></defs><clipPath id="SVGID_26_"><use overflow="visible" xlink:href="#SVGID_759_"/></clipPath><path clip-path="url(#SVGID_26_)" d="M81.7,39.7l-14.7-8.6c0.5-0.3,1-0.6,1.6-0.8L83.2,39     C82.7,39.2,82.2,39.4,81.7,39.7" fill="#C25272"/><path clip-path="url(#SVGID_26_)" d="M83.2,39l-14.7-8.6c0.4-0.2,0.9-0.3,1.3-0.5l14.7,8.6     C84.1,38.6,83.7,38.8,83.2,39" fill="#BD506F"/><path clip-path="url(#SVGID_26_)" d="M84.5,38.5l-14.7-8.6c0.3-0.1,0.7-0.2,1-0.2l14.7,8.6     C85.2,38.3,84.9,38.4,84.5,38.5" fill="#B84E6C"/><path clip-path="url(#SVGID_26_)" d="M85.5,38.3l-14.7-8.6c0.3,0,0.6-0.1,0.8-0.1l14.7,8.6     C86.1,38.2,85.8,38.3,85.5,38.3" fill="#B34B69"/><path clip-path="url(#SVGID_26_)" d="M86.3,38.2l-14.7-8.6c0.2,0,0.5,0,0.7,0l14.7,8.6     C86.8,38.2,86.6,38.2,86.3,38.2" fill="#AE4966"/><path clip-path="url(#SVGID_26_)" d="M87.1,38.2l-14.7-8.6c0.2,0,0.5,0,0.7,0.1l14.7,8.6     C87.5,38.3,87.3,38.2,87.1,38.2" fill="#A94763"/><path clip-path="url(#SVGID_26_)" d="M87.8,38.3L73,29.7c0.2,0,0.4,0.1,0.6,0.1l14.7,8.6     C88.2,38.4,88,38.3,87.8,38.3" fill="#A54561"/><path clip-path="url(#SVGID_26_)" d="M88.4,38.4l-14.7-8.6c0.2,0.1,0.4,0.1,0.6,0.2L89,38.6     C88.8,38.6,88.6,38.5,88.4,38.4" fill="#A0435E"/><path clip-path="url(#SVGID_26_)" d="M89,38.6l-14.7-8.6c0.2,0.1,0.4,0.2,0.6,0.3l14.7,8.6     C89.3,38.8,89.2,38.7,89,38.6" fill="#9B415B"/><path clip-path="url(#SVGID_26_)" d="M89.5,38.9l-14.7-8.6c0,0,0,0,0.1,0L89.5,38.9     C89.6,38.9,89.5,38.9,89.5,38.9" fill="#963F58"/></g><polygon fill="#848484" points="61.3,74.3 46.5,65.7 46.5,60.6 61.3,69.1   "/><g enable-background="new    "><defs><path d="M73.9,66l-14.7-8.6c-2-1.2-3.2-3.6-3.2-7.1c0-7,4.9-15.6,11-19.1l14.7,8.6      c-6.1,3.5-11.1,12.1-11,19.1C70.6,62.4,71.9,64.8,73.9,66z" enable-background="new    " id="SVGID_761_"/></defs><clipPath id="SVGID_28_"><use overflow="visible" xlink:href="#SVGID_761_"/></clipPath><path clip-path="url(#SVGID_28_)" d="M73.9,66l-14.7-8.6c-2-1.2-3.2-3.6-3.2-7.1c0-0.7,0-1.4,0.1-2.2l14.7,8.6     c-0.1,0.7-0.1,1.5-0.1,2.2C70.6,62.4,71.9,64.8,73.9,66" fill="#7E354A"/><path clip-path="url(#SVGID_28_)" d="M70.8,56.7L56,48.1c0.1-0.5,0.2-1,0.3-1.5L71,55.2     C70.9,55.7,70.8,56.2,70.8,56.7" fill="#83374D"/><path clip-path="url(#SVGID_28_)" d="M71,55.2l-14.7-8.6c0.1-0.4,0.2-0.8,0.3-1.3l14.7,8.6     C71.2,54.3,71.1,54.7,71,55.2" fill="#883950"/><path clip-path="url(#SVGID_28_)" d="M71.3,53.9l-14.7-8.6c0.1-0.4,0.2-0.8,0.3-1.1l14.7,8.6     C71.6,53.1,71.5,53.5,71.3,53.9" fill="#8C3B52"/><path clip-path="url(#SVGID_28_)" d="M71.7,52.8L57,44.2c0.1-0.3,0.2-0.7,0.4-1l14.7,8.6     C71.9,52.1,71.8,52.4,71.7,52.8" fill="#913D55"/><path clip-path="url(#SVGID_28_)" d="M72.1,51.7l-14.7-8.6c0.1-0.3,0.3-0.7,0.4-1l14.7,8.6     C72.3,51.1,72.2,51.4,72.1,51.7" fill="#963F58"/><path clip-path="url(#SVGID_28_)" d="M72.5,50.7l-14.7-8.6c0.1-0.3,0.3-0.6,0.4-1l14.7,8.6     C72.8,50.1,72.6,50.4,72.5,50.7" fill="#9B415B"/><path clip-path="url(#SVGID_28_)" d="M72.9,49.8l-14.7-8.6c0.2-0.3,0.3-0.6,0.5-0.9l14.7,8.6     C73.2,49.1,73.1,49.4,72.9,49.8" fill="#A0435E"/><path clip-path="url(#SVGID_28_)" d="M73.4,48.8l-14.7-8.6c0.2-0.3,0.3-0.6,0.5-0.9l14.7,8.6     C73.7,48.2,73.6,48.5,73.4,48.8" fill="#A54561"/><path clip-path="url(#SVGID_28_)" d="M73.9,47.9l-14.7-8.6c0.2-0.3,0.4-0.6,0.6-0.9l14.7,8.6     C74.3,47.2,74.1,47.6,73.9,47.9" fill="#A94763"/><path clip-path="url(#SVGID_28_)" d="M74.5,46.9l-14.7-8.6c0.2-0.3,0.4-0.6,0.6-1L75.1,46     C74.9,46.3,74.7,46.6,74.5,46.9" fill="#AE4966"/><path clip-path="url(#SVGID_28_)" d="M75.1,46l-14.7-8.6c0.2-0.3,0.5-0.7,0.7-1L75.9,45     C75.6,45.3,75.4,45.6,75.1,46" fill="#B34B69"/><path clip-path="url(#SVGID_28_)" d="M75.9,45l-14.7-8.6c0.3-0.4,0.6-0.7,0.9-1.1l14.7,8.6     C76.5,44.2,76.2,44.6,75.9,45" fill="#B84E6C"/><path clip-path="url(#SVGID_28_)" d="M76.8,43.9L62,35.3c0.4-0.4,0.8-0.9,1.2-1.3L78,42.6     C77.6,43,77.2,43.4,76.8,43.9" fill="#BD506F"/><path clip-path="url(#SVGID_28_)" d="M78,42.6L63.2,34c1.2-1.1,2.4-2.1,3.7-2.9l14.7,8.6     C80.4,40.5,79.1,41.5,78,42.6" fill="#C25272"/></g><path d="M81.7,39.7c6.1-3.5,11.1-0.7,11.1,6.3c0,4.3-1.8,9.1-4.6,13c-1.8,2.6-4.1,4.7-6.5,6.1    c-2.4,1.4-4.6,1.8-6.5,1.3c-2.8-0.7-4.6-3.4-4.7-7.7C70.6,51.8,75.6,43.3,81.7,39.7z M81.7,59.9c3.6-2.1,6.5-7.1,6.5-11.2    c0-4.1-2.9-5.8-6.5-3.7c-3.6,2.1-6.5,7.1-6.5,11.2C75.3,60.3,78.2,62,81.7,59.9" fill="#F2668E"/><polygon fill="#D5D5D5" points="47.3,82.3 32.6,73.7 46.5,65.7 61.3,74.3   "/><polygon fill="#848484" points="61.2,60.5 46.5,51.9 46.5,46.8 61.2,55.4   "/><polygon fill="#6B6B6B" points="47.3,82.3 32.6,73.7 32.6,68.6 47.3,77.2   "/><polygon fill="#ADADAD" points="47.3,77.2 32.6,68.6 46.5,60.6 61.3,69.1   "/><polygon fill="#D5D5D5" points="47.3,68.5 32.6,60 46.5,51.9 61.2,60.5   "/><polygon fill="#6B6B6B" points="47.3,68.5 32.6,60 32.6,54.9 47.3,63.4   "/><polygon fill="#ADADAD" points="47.3,63.4 32.6,54.9 46.5,46.8 61.2,55.4   "/><polygon fill="#D5D5D5" points="47.3,54.8 32.5,46.2 78.4,19.7 93.1,28.3   "/><polygon fill="#C9C9C9" points="93.1,23.2 93.1,28.3 47.3,54.8 47.3,49.7   "/><polygon fill="#6B6B6B" points="47.3,54.8 32.5,46.2 32.5,41.1 47.3,49.7   "/><polygon fill="#ADADAD" points="47.3,49.7 32.5,41.1 78.4,14.6 93.1,23.2   "/><path d="M38.5,45.6l63.3-36.6l0.1,50.8l-13.7,7.9l0-8.7c2.8-3.9,4.6-8.8,4.6-13c0-7-5-9.9-11.1-6.3    c-6.1,3.5-11.1,12.1-11,19.1c0,4.3,1.8,7,4.7,7.7l0,8.7L38.6,96.4L38.5,45.6z M93.1,28.3l0-5.1L47.3,49.7l0,5.1L93.1,28.3     M61.3,74.3l0-5.1l-13.9,8l0,5.1L61.3,74.3 M61.2,60.5l0-5.1l-13.9,8l0,5.1L61.2,60.5" fill="#DBDBDB"/><polygon fill="#C9C9C9" points="61.3,69.1 61.3,74.3 47.3,82.3 47.3,77.2   "/><polygon fill="#C9C9C9" points="61.2,55.4 61.2,60.5 47.3,68.5 47.3,63.4   "/><polygon fill="#F7F7F7" points="38.5,45.6 23.8,37.1 87.1,0.5 101.8,9.1   "/><polygon fill="#7E8896" points="38.6,96.4 23.9,87.8 23.8,37.1 38.5,45.6   "/></g></g></svg>