<?xml version="1.0" ?><!DOCTYPE svg  PUBLIC '-//W3C//DTD SVG 1.1//EN'  'http://www.w3.org/Graphics/SVG/1.1/DTD/svg11.dtd'><svg enable-background="new 0 0 130 130" height="130px" id="Layer_1" version="1.1" viewBox="0 0 130 130" width="130px" xml:space="preserve" xmlns="http://www.w3.org/2000/svg" xmlns:xlink="http://www.w3.org/1999/xlink"><g><g><path d="M105.133,9.844l-12.82-7.345c-0.561-0.409-1.162-0.754-1.801-1.032l-0.189-0.107l-0.008,0.016    c-3.449-1.402-7.904-0.896-12.764,1.909L38.064,26.08c-10.857,6.268-19.74,21.655-19.74,34.193v45.591    c0,6.114,2.123,10.45,5.547,12.577l-0.033,0.06l14.248,8.073l8.012-13.95l31.453-18.157c10.855-6.269,19.74-21.656,19.74-34.193    V23.496L105.133,9.844z" fill="#B2BFCE"/><path d="M105.133,9.844L91.41,6.625c-0.561-0.408-3.363-0.398-4.002-0.678l-1.018-0.406L84.559,5.2    c-3.449-1.402-2.148-4.721-7.008-1.916L38.064,26.08c-10.857,6.268-19.74,21.655-19.74,34.193v45.591    c0,6.114,2.123,10.45,5.547,12.577l-0.033,0.06l14.248,8.073l8.012-13.95l31.453-18.157c10.855-6.269,19.74-21.656,19.74-34.193    V23.496L105.133,9.844z" fill="#989FA8"/><path d="M19.076,53.705c-0.479,2.232-0.752,4.442-0.752,6.568v45.591c0,6.114,2.123,10.45,5.547,12.577    l-0.033,0.06l14.248,8.073l8.012-13.95l31.453-18.157c1.844-1.065,3.627-2.41,5.322-3.945L19.076,53.705z" fill="#76828E"/><g><path d="M51.635,33.949c-10.857,6.268-19.742,21.656-19.742,34.193v45.592c0,12.537,8.885,17.666,19.742,11.396     l39.484-22.795c10.857-6.268,19.742-21.655,19.742-34.193V22.551c0-12.537-8.885-17.665-19.742-11.396L51.635,33.949z" fill="#F3FAFF"/><path d="M110.862,22.252c0-12.537-8.885-17.665-19.742-11.396L51.636,33.65     c-10.857,6.268-19.742,21.656-19.742,34.193v45.592c0,12.537,8.885,17.666,19.742,11.396" fill="#E5F0F9"/><path d="M42.865,128.62h-0.002c-7.158,0-11.783-5.843-11.783-14.886V68.143c0-12.828,9.037-28.484,20.146-34.898     l39.486-22.795c3.201-1.848,6.289-2.784,9.178-2.784c7.158,0,11.785,5.844,11.785,14.886v45.592     c0,12.829-9.039,28.484-20.148,34.898l-39.486,22.795C48.84,127.684,45.754,128.62,42.865,128.62z M99.891,9.293     c-2.6,0-5.414,0.863-8.363,2.564L52.041,34.654c-10.66,6.155-19.334,21.178-19.334,33.488v45.592     c0,8.178,3.891,13.258,10.156,13.258h0.002c2.6,0,5.412-0.863,8.361-2.564l39.486-22.797     c10.66-6.154,19.334-21.178,19.334-33.488V22.551C110.047,14.373,106.156,9.293,99.891,9.293z" fill="#CAD5E0"/></g></g><g><g><g><path d="M93.987,30.918v68.347c-0.001,2.161-1.53,4.813-3.403,5.895l-27.111,15.651l-2.722,8.033l-6.594-3.808      c-0.617-0.354-0.999-1.116-1-2.196l-0.001-86.434c0.002-2.162,1.532-4.814,3.404-5.894l34.023-19.644      c0.937-0.543,1.788-0.592,2.403-0.235l6.594,3.807L93.987,30.918z" fill="#CAD5E0"/><path d="M94.52,31.224l0.001,68.349c-0.001,2.16-1.533,4.813-3.403,5.895l-27.111,15.651l-2.725,8.032      l-6.593-3.807c-0.616-0.355-0.998-1.117-0.999-2.198V36.715c0-2.164,1.529-4.816,3.4-5.896l34.027-19.642      c0.935-0.544,1.785-0.593,2.402-0.235l6.592,3.806L94.52,31.224z" fill="#76828E"/><path d="M53.689,36.715c0-2.164,1.529-4.816,3.4-5.896l34.027-19.642      c0.935-0.544,1.785-0.593,2.402-0.235l6.592,3.806L94.52,31.224l0.001,68.349c-0.001,2.16-1.533,4.813-3.403,5.895      l-27.111,15.651l-2.725,8.032" fill="#96ACB5" opacity="0.3"/><path d="M94.52,61.851l-40.83-23.572v-1.563c0-2.164,1.529-4.816,3.4-5.896l34.027-19.642      c0.935-0.544,1.785-0.593,2.402-0.235l6.592,3.806L94.52,31.224V61.851z" fill="#989FA8"/><path d="M94.521,52.311L57.195,30.76l33.922-19.583c0.935-0.544,1.785-0.593,2.402-0.235l6.592,3.806      L94.52,31.224L94.521,52.311z" fill="#B2BFCE"/><path d="M100.472,16.576l0.002,86.433c-0.001,2.161-1.529,4.814-3.402,5.896l-34.026,19.644      c-1.87,1.081-3.402,0.197-3.402-1.964L59.641,40.15c0.002-2.161,1.534-4.812,3.404-5.893L97.07,14.612      C98.941,13.531,100.473,14.415,100.472,16.576z" fill="#76828E"/><path d="M101.11,16.947l0.002,86.431c-0.002,2.161-1.531,4.813-3.402,5.895l-34.024,19.645      c-1.873,1.082-3.404,0.196-3.403-1.964l-0.001-86.433c0-2.163,1.53-4.815,3.401-5.896l34.025-19.643      C99.581,13.9,101.11,14.785,101.11,16.947z" fill="#CAD5E0"/><path d="M97.858,64.875l0.334-0.575l-0.001,29.993c-0.001,2.16-1.533,4.812-3.403,5.895L67.677,115.84      l-7.222,5.435l-2.097-1.21c-0.613-0.355-0.997-1.116-0.998-2.197l-0.002-76.375L97.858,64.875z" fill="#18292D"/><g><g><path d="M61.886,31.731c0.089,0.146,0.101,0.292,0.031,0.409c-0.064,0.111-0.196,0.176-0.368,0.176        c-0.155-0.002-0.33-0.053-0.492-0.146s-0.294-0.221-0.37-0.354c-0.087-0.146-0.097-0.293-0.032-0.405        c0.066-0.117,0.198-0.181,0.369-0.179C61.334,31.23,61.731,31.46,61.886,31.731z" fill="#88A3A1"/><path d="M61.827,31.807c0.086,0.149,0.096,0.29,0.031,0.406c-0.072,0.066-0.182,0.104-0.31,0.104        c-0.155-0.002-0.33-0.053-0.492-0.146s-0.294-0.221-0.37-0.354c-0.087-0.146-0.097-0.293-0.032-0.405        c0.073-0.063,0.178-0.103,0.31-0.104C61.274,31.307,61.671,31.537,61.827,31.807z" fill="#1E211E"/></g><g><path d="M63.52,30.86c0.088,0.144,0.101,0.29,0.03,0.408c-0.064,0.113-0.194,0.175-0.367,0.176        c-0.156-0.002-0.329-0.053-0.493-0.146c-0.16-0.094-0.294-0.221-0.371-0.353c-0.085-0.149-0.097-0.293-0.031-0.407        c0.068-0.117,0.199-0.181,0.369-0.179C62.969,30.358,63.365,30.588,63.52,30.86z" fill="#88A3A1"/><path d="M63.46,30.935c0.086,0.148,0.098,0.291,0.032,0.406c-0.073,0.067-0.181,0.105-0.31,0.104        c-0.156-0.002-0.329-0.053-0.493-0.146c-0.16-0.094-0.294-0.221-0.371-0.353c-0.084-0.149-0.095-0.293-0.031-0.407        c0.074-0.063,0.18-0.101,0.31-0.104C62.906,30.436,63.305,30.665,63.46,30.935z" fill="#1E211E"/></g><g><path d="M65.154,29.988c0.087,0.145,0.097,0.291,0.031,0.408c-0.066,0.114-0.196,0.177-0.369,0.177        c-0.154-0.002-0.33-0.053-0.492-0.146c-0.162-0.095-0.294-0.22-0.371-0.353c-0.084-0.15-0.097-0.294-0.033-0.408        c0.068-0.116,0.201-0.181,0.371-0.177C64.604,29.488,64.999,29.717,65.154,29.988z" fill="#88A3A1"/><path d="M65.094,30.063c0.086,0.148,0.098,0.291,0.032,0.406c-0.073,0.067-0.18,0.105-0.31,0.104        c-0.154-0.002-0.33-0.053-0.492-0.146c-0.162-0.095-0.294-0.22-0.371-0.353c-0.084-0.149-0.097-0.294-0.033-0.408        c0.074-0.062,0.18-0.102,0.311-0.102C64.541,29.564,64.94,29.794,65.094,30.063z" fill="#1E211E"/></g><g><path d="M66.788,29.116c0.086,0.146,0.098,0.291,0.029,0.409c-0.062,0.113-0.194,0.176-0.367,0.176        c-0.155-0.002-0.333-0.053-0.492-0.146c-0.163-0.092-0.294-0.22-0.371-0.352c-0.086-0.148-0.099-0.293-0.032-0.405        c0.068-0.12,0.201-0.184,0.37-0.18C66.235,28.614,66.634,28.845,66.788,29.116z" fill="#88A3A1"/><path d="M66.728,29.191c0.087,0.148,0.097,0.291,0.032,0.406c-0.074,0.067-0.181,0.104-0.31,0.104        c-0.155-0.002-0.333-0.053-0.492-0.146c-0.163-0.092-0.294-0.22-0.371-0.352c-0.085-0.147-0.096-0.293-0.032-0.405        c0.072-0.065,0.179-0.102,0.311-0.103C66.175,28.691,66.571,28.923,66.728,29.191z" fill="#1E211E"/></g><g><path d="M68.42,28.246c0.09,0.147,0.101,0.29,0.033,0.408c-0.065,0.113-0.199,0.176-0.369,0.174        c-0.156,0-0.331-0.051-0.493-0.143c-0.162-0.094-0.295-0.221-0.371-0.354c-0.084-0.148-0.097-0.295-0.031-0.406        c0.067-0.119,0.199-0.18,0.368-0.178C67.868,27.746,68.268,27.976,68.42,28.246z" fill="#88A3A1"/><path d="M68.36,28.32c0.087,0.148,0.098,0.29,0.033,0.408c-0.072,0.065-0.181,0.103-0.31,0.1        c-0.156,0-0.331-0.051-0.493-0.143c-0.162-0.094-0.295-0.221-0.371-0.354c-0.083-0.148-0.094-0.294-0.031-0.406        c0.073-0.064,0.18-0.104,0.309-0.102C67.809,27.82,68.205,28.051,68.36,28.32z" fill="#1E211E"/></g><g><path d="M70.055,27.376c0.088,0.144,0.099,0.289,0.032,0.407c-0.067,0.112-0.197,0.175-0.37,0.176        c-0.155-0.002-0.33-0.054-0.492-0.146c-0.162-0.094-0.294-0.221-0.371-0.354c-0.084-0.148-0.097-0.292-0.031-0.405        c0.068-0.118,0.198-0.182,0.368-0.178C69.504,26.871,69.899,27.101,70.055,27.376z" fill="#88A3A1"/><path d="M69.995,27.448c0.086,0.147,0.098,0.293,0.032,0.407c-0.073,0.067-0.181,0.105-0.311,0.104        c-0.155-0.002-0.33-0.054-0.492-0.146c-0.162-0.094-0.294-0.221-0.371-0.354c-0.083-0.147-0.096-0.292-0.031-0.405        c0.073-0.064,0.181-0.103,0.31-0.103C69.44,26.949,69.838,27.18,69.995,27.448z" fill="#1E211E"/></g></g><path d="M67.305,36.133c0.002,0.731-0.516,1.625-1.147,1.989c-0.63,0.365-1.147,0.067-1.146-0.662      c-0.002-0.729,0.515-1.622,1.147-1.989C66.788,35.109,67.307,35.408,67.305,36.133z" fill="#373A37"/></g><g><polygon fill="#224C63" points="60.455,121.274 100.937,97.902 100.937,19.998 60.456,43.368     "/></g><g opacity="0.5"><polyline fill="#224C63" points="100.937,19.998 60.456,43.368 60.455,121.274     "/></g><g><path d="M76.378,115.803c-0.223,0.388-0.347,0.807-0.348,1.179c0,0.419,0.153,0.738,0.433,0.899      c0.28,0.16,0.632,0.135,0.994-0.076l8.641-4.988c0.322-0.186,0.625-0.502,0.851-0.893c0.223-0.389,0.348-0.808,0.347-1.18      c0.001-0.41-0.156-0.737-0.433-0.896c-0.274-0.158-0.638-0.133-0.994,0.074l-8.644,4.988      C76.903,115.098,76.604,115.414,76.378,115.803z" fill="#1E211E"/><path d="M86.746,111.809c-0.194,0.339-0.466,0.637-0.764,0.809l-8.64,4.989c-0.595,0.342-1.081,0.062-1.081-0.625      c0-0.343,0.121-0.725,0.317-1.062c0.195-0.34,0.464-0.636,0.764-0.808l8.642-4.989c0.593-0.344,1.08-0.062,1.079,0.623      C87.064,111.088,86.942,111.469,86.746,111.809 M87.146,112.04c0.246-0.425,0.381-0.885,0.38-1.295      c0.001-0.497-0.199-0.897-0.549-1.098c-0.348-0.201-0.795-0.175-1.225,0.074l-8.644,4.988c-0.355,0.207-0.688,0.554-0.931,0.979      c-0.245,0.421-0.38,0.882-0.38,1.293c0,0.497,0.2,0.898,0.55,1.1c0.349,0.202,0.795,0.174,1.225-0.075l8.642-4.989      C86.571,112.812,86.904,112.464,87.146,112.04L87.146,112.04z"/></g></g><path d="M96.257,20.326c-0.001,0.562-0.398,1.248-0.883,1.528c-0.484,0.279-0.881,0.051-0.882-0.509    c0-0.56,0.397-1.246,0.883-1.528C95.859,19.539,96.256,19.768,96.257,20.326z" fill="#24DD24"/><path d="M92.858,22.352c0,0.562-0.396,1.25-0.88,1.527c-0.486,0.28-0.881,0.052-0.882-0.507    c0-0.56,0.396-1.246,0.884-1.528C92.464,21.564,92.858,21.793,92.858,22.352z" fill="#19B4D8"/><g><path d="M77.677,31.281c-0.519,0.299-0.938,0.056-0.94-0.543c0-0.598,0.422-1.328,0.939-1.628l7.522-4.341     c0.515-0.299,0.94-0.056,0.938,0.541c0.002,0.596-0.424,1.33-0.941,1.629L77.677,31.281z" fill="#1E211E"/><path d="M78.128,31.542c-0.518,0.299-0.939,0.056-0.939-0.542c-0.002-0.6,0.422-1.329,0.94-1.628l7.521-4.342     c0.516-0.3,0.94-0.055,0.938,0.541c0.002,0.597-0.421,1.33-0.94,1.629L78.128,31.542z" fill="#373A37"/><path d="M85.647,27.2l-7.34,4.238c0.071-0.559,0.419-1.182,0.886-1.452l7.344-4.235     C86.466,26.308,86.115,26.931,85.647,27.2z" fill="#3F443F"/></g></g></g></svg>