<?xml version="1.0" ?><!DOCTYPE svg  PUBLIC '-//W3C//DTD SVG 1.1//EN'  'http://www.w3.org/Graphics/SVG/1.1/DTD/svg11.dtd'><svg enable-background="new 0 0 50 50" id="Layer_1" version="1.1" viewBox="0 0 50 50" xml:space="preserve" xmlns="http://www.w3.org/2000/svg" xmlns:xlink="http://www.w3.org/1999/xlink"><g><g><path d="M6.7,12.9c7.3-4.1,7.4-4.7,9-4.7l-7.4,4.3C7.7,12.4,7.2,12.6,6.7,12.9z" fill="#F0F0F2"/><g enable-background="new    "><defs><path d="M37.9,33.5l-7.4,4.3c0.1-0.1,0.2-0.1,0.3-0.2l7.4-4.3      C38.1,33.4,38,33.4,37.9,33.5z" enable-background="new    " id="SVGID_33_"/></defs><clipPath id="SVGID_2_"><use overflow="visible" xlink:href="#SVGID_33_"/></clipPath><g clip-path="url(#SVGID_2_)" enable-background="new    "><path d="M30.9,37.5l7.4-4.3c-0.1,0.1-0.2,0.2-0.3,0.2l-7.4,4.3C30.7,37.7,30.8,37.6,30.9,37.5" fill="#6F6E6F"/></g></g><path d="M10.7,5.8l7.4-4.3c1.5-0.9,3.7-0.8,6,0.6l-7.4,4.3C14.4,5.1,12.3,4.9,10.7,5.8z" fill="#E9E9EA"/><path d="M16.8,6.4l7.4-4.3c3,1.8,5.7,5.1,7.2,8.7l-7.4,4.3C22.5,11.6,19.8,8.2,16.8,6.4z" fill="#E9E9EA"/><path d="M43.6,35l-7.4,4.3c0.9-0.5,1.5-1.6,1.5-3.2c0-2.8-1.7-6.2-4.1-8.1l7.4-4.3c2.3,1.9,4.1,5.2,4.1,8.1    C45.1,33.4,44.5,34.5,43.6,35z" fill="#E9E9EA"/><path d="M23.9,15.2l7.4-4.3c1-0.1,2,0.2,3.2,0.9c3.6,2.1,6.5,7.2,6.5,11.3c0,0.2,0,0.4,0,0.6L33.7,28    c0-0.2,0-0.4,0-0.6c0-4.2-2.9-9.2-6.5-11.3C26,15.4,24.9,15.1,23.9,15.2z" fill="#E9E9EA"/><g><path d="M23.9,15.2c1-0.1,2,0.2,3.2,0.9c3.6,2.1,6.5,7.2,6.5,11.3c0,0.2,0,0.4,0,0.6c2.3,1.9,4.1,5.2,4.1,8.1     c0,3.2-2.3,4.5-5.1,2.9c-0.6-0.4-1.2-0.8-1.8-1.4c-1.1,0.9-2.8,0.9-4.7-0.2c-1.5-0.9-2.9-2.3-4-4c-1.1,0.4-2.5,0.2-4-0.6     c-1.6-0.9-3.1-2.5-4.2-4.3c-0.9,0-1.8-0.2-2.9-0.8c-3.4-2-6.2-6.8-6.2-10.7c0-2.8,1.4-4.4,3.4-4.4C7.2,1.7,19.1,3.5,23.9,15.2z" fill="#D8D8D9"/></g></g><g><g><path d="M14.4,41.8l0-13.7c0,0.5,0.3,0.9,0.9,1.3l0,13.7C14.7,42.7,14.4,42.2,14.4,41.8z" fill="#D8D8D9"/><g enable-background="new    "><path d="M15.4,29.3l0,13.7c-0.6-0.4-0.9-0.8-0.9-1.3l0-13.7C14.4,28.5,14.7,29,15.4,29.3" fill="#E9A078"/></g><g><polygon fill="#E9A078" points="24.7,34.7 24.7,48.5 15.3,43.1 15.4,29.3     "/></g><path d="M30.1,33.4l0,13.7c0,0.5-0.3,0.9-0.9,1.3c-1.2,0.7-3.2,0.7-4.5,0l0-13.7c1.2,0.7,3.2,0.7,4.5,0     C29.8,34.4,30.1,33.9,30.1,33.4z" fill="#E9A078"/><g><path d="M29.2,32.1c1.2,0.7,1.2,1.9,0,2.6c-1.2,0.7-3.2,0.7-4.5,0l-9.3-5.4c-1.2-0.7-1.2-1.9,0-2.6      c1.2-0.7,3.2-0.7,4.5,0L29.2,32.1z" fill="#F2AB7E"/></g></g><g><g><polygon fill="#3D4349" points="18.1,24.4 20.4,23.1 20.4,28.5 18.1,29.9     "/></g><path d="M19,22.5l2.3-1.4c-0.5,0.3-0.9,1-0.9,1.9l-2.3,1.4C18.1,23.5,18.4,22.8,19,22.5z" fill="#3D4349"/><g><polygon fill="#5A6269" points="25.9,28.9 28.2,27.5 28.2,33 25.8,34.4     "/></g><path d="M17.7,20.4l2.3-1.4c0.9-0.5,2.1-0.4,3.4,0.3l-2.3,1.4C19.8,19.9,18.6,19.9,17.7,20.4z" fill="#5A6269"/><path d="M21.1,20.7l2.3-1.4c2.6,1.5,4.8,5.2,4.7,8.2l-2.3,1.4C25.9,25.9,23.7,22.2,21.1,20.7z" fill="#5A6269"/><g><path d="M21.1,20.7c2.6,1.5,4.8,5.2,4.7,8.2l0,5.5l-1.8-1l0-5.5c0-1.9-1.3-4.2-3-5.2c-1.7-1-3-0.2-3,1.7l0,5.5      l-1.8-1l0-5.5C16.4,20.4,18.5,19.2,21.1,20.7z" fill="#50565C"/></g></g><g><path d="M20,36.4c0.7,0.4,1.3,1.5,1.3,2.3c0,0.6-0.3,0.9-0.7,0.9l0.3,2.4l-1.9-1.1l0.3-2.1     c-0.4-0.5-0.7-1.1-0.7-1.7C18.7,36.3,19.3,35.9,20,36.4z" fill="#3D4349"/></g></g></g></svg>