<?xml version="1.0" ?><!DOCTYPE svg  PUBLIC '-//W3C//DTD SVG 1.0//EN'  'http://www.w3.org/TR/2001/REC-SVG-20010904/DTD/svg10.dtd'><svg enable-background="new 0 0 512 512" height="512px" id="Layer_2" version="1.0" viewBox="0 0 512 512" width="512px" xml:space="preserve" xmlns="http://www.w3.org/2000/svg" xmlns:xlink="http://www.w3.org/1999/xlink"><g><linearGradient gradientUnits="userSpaceOnUse" id="SVGID_1_" x1="27.458" x2="470.282" y1="315.1738" y2="467.6504"><stop offset="0.0161" style="stop-color:#414042"/><stop offset="0.0986" style="stop-color:#474749"/><stop offset="0.2146" style="stop-color:#58595B"/><stop offset="0.2151" style="stop-color:#58595B"/><stop offset="0.83" style="stop-color:#58595B"/><stop offset="0.8676" style="stop-color:#555657"/><stop offset="0.9026" style="stop-color:#4E4D4C"/><stop offset="0.9367" style="stop-color:#413F39"/><stop offset="0.9699" style="stop-color:#2E2B1F"/><stop offset="1" style="stop-color:#191300"/></linearGradient><path clip-rule="evenodd" d="M89.368,446.447c-4.634,0-8.032-1.318-11.833-3.541   c-3.563-2.083-27.035-27.616-65.119-67.315c-1.196-1.099-3.178-5.613-3.178-7.499c5.375,6.463,31.084,6.743,35.72,6.743   c49.047,0,390.389-0.014,423.284-0.014c4.638,0,30.349-0.283,35.724-6.741c0,4.566-2.918,7.3-3.178,7.494   c-44.971,48.673-63.531,65.19-67.092,67.27c-3.802,2.221-7.201,3.54-11.837,3.54L89.368,446.447z" fill="url(#SVGID_1_)" fill-rule="evenodd"/></g><g><linearGradient gradientTransform="matrix(0 -1 1 0 -212.9829 723.7656)" gradientUnits="userSpaceOnUse" id="SVGID_2_" x1="297.8467" x2="647.4703" y1="715.0693" y2="621.3879"><stop offset="0.628" style="stop-color:#58595B"/><stop offset="0.7102" style="stop-color:#555657"/><stop offset="0.7869" style="stop-color:#4E4D4C"/><stop offset="0.8614" style="stop-color:#413F39"/><stop offset="0.934" style="stop-color:#2E2B1F"/><stop offset="1" style="stop-color:#191300"/></linearGradient><path clip-rule="evenodd" d="M506.969,363.359c0,4.635-1.318,8.033-3.541,11.834   c-2.083,3.562-12.317,16.879-67.315,67.076c-1.099,1.196-5.612,3.176-7.5,3.176c6.464-5.374,6.744-31.083,6.744-35.718   c0-49.048-0.014-270.226-0.015-303.12c0-4.638-0.283-30.348-6.74-35.724c4.565,0,7.3,2.917,7.493,3.178   c48.674,44.971,65.191,63.531,67.271,67.091c2.222,3.802,3.54,7.202,3.54,11.837L506.969,363.359z" fill="url(#SVGID_2_)" fill-rule="evenodd"/></g><g><linearGradient gradientTransform="matrix(-1 0 0 -1 510.7812 936.748)" gradientUnits="userSpaceOnUse" id="SVGID_3_" x1="27.7485" x2="465.1929" y1="735.2168" y2="894.4335"><stop offset="0" style="stop-color:#414042"/><stop offset="0.3118" style="stop-color:#58595B"/><stop offset="0.83" style="stop-color:#58595B"/><stop offset="0.8676" style="stop-color:#555657"/><stop offset="0.9026" style="stop-color:#4E4D4C"/><stop offset="0.9367" style="stop-color:#413F39"/><stop offset="0.9699" style="stop-color:#2E2B1F"/><stop offset="1" style="stop-color:#191300"/></linearGradient><path clip-rule="evenodd" d="M421.878,65.668c4.634,0,8.032,1.318,11.832,3.541   c3.563,2.083,16.88,12.317,67.077,67.315c1.196,1.099,3.178,5.613,3.178,7.5c-5.374-6.463-31.083-6.744-35.719-6.744   c-49.047,0-390.39,0.014-423.284,0.014c-4.637,0-30.348,0.283-35.724,6.74c0-4.564,2.917-7.299,3.177-7.493   c44.971-48.673,63.531-65.191,67.092-67.27c3.802-2.221,7.202-3.54,11.837-3.54L421.878,65.668z" fill="url(#SVGID_3_)" fill-rule="evenodd"/></g><g><linearGradient gradientTransform="matrix(0 1 -1 0 1146.9199 -207.4531)" gradientUnits="userSpaceOnUse" id="SVGID_4_" x1="394.5674" x2="542.9283" y1="970.9824" y2="1167.864"><stop offset="0.7785" style="stop-color:#58595B"/><stop offset="0.8685" style="stop-color:#555557"/><stop offset="0.9523" style="stop-color:#4A4A4C"/><stop offset="1" style="stop-color:#414042"/></linearGradient><path clip-rule="evenodd" d="M6.969,148.954c0-4.635,1.319-8.033,3.541-11.834   c2.083-3.562,12.317-16.879,67.315-67.076c1.099-1.196,5.613-3.176,7.5-3.176c-6.463,5.374-6.744,31.083-6.744,35.718   c0,49.047,0.014,275.245,0.015,308.139c0,4.638,0.284,30.348,6.74,35.724c-4.565,0-8.304-2.917-8.497-3.177   c-48.674-44.972-64.188-62.527-66.267-66.088c-2.222-3.802-3.54-7.202-3.54-11.837L6.969,148.954z" fill="url(#SVGID_4_)" fill-rule="evenodd"/></g><g><g><linearGradient gradientTransform="matrix(-0.7071 -0.7071 -0.7071 0.7071 1161.0029 -44.3203)" gradientUnits="userSpaceOnUse" id="SVGID_5_" x1="538.0586" x2="352.4975" y1="872.6699" y2="908.7393"><stop offset="0.4537" style="stop-color:#58595B"/><stop offset="0.5745" style="stop-color:#555657"/><stop offset="0.6871" style="stop-color:#4E4D4C"/><stop offset="0.7965" style="stop-color:#413F39"/><stop offset="0.9031" style="stop-color:#2E2B1F"/><stop offset="1" style="stop-color:#191300"/></linearGradient><path clip-rule="evenodd" d="M178.195,182.356c0,0,84.585,84.598,108.939,108.955    c3.849,3.848,23.423,23.957,33.248,23.053c-1.564,1.565-6.955,3.668-8.862,3.588c-87.323,3.986-104.874,2.427-109.561,1.198    c-5-1.309-8.916-3.036-12.761-6.883c0,0-56.596-58.268-61.835-63.661s-6.414-10.323,1.679-18.229S178.195,182.356,178.195,182.356    z" fill="url(#SVGID_5_)" fill-rule="evenodd"/></g><g><linearGradient gradientTransform="matrix(0.7071 -0.7071 0.7071 0.7071 -405.0615 -44.3203)" gradientUnits="userSpaceOnUse" id="SVGID_6_" x1="412.4033" x2="291.889" y1="615.2148" y2="793.8846"><stop offset="0.7332" style="stop-color:#58595B"/><stop offset="0.8397" style="stop-color:#545557"/><stop offset="0.9476" style="stop-color:#49494B"/><stop offset="1" style="stop-color:#414042"/></linearGradient><path clip-rule="evenodd" d="M326.528,312.267c-3.845,3.847-7.762,6.574-12.761,7.883    c0,0-1.413,0.358-107.562,0.98c-2.873,0.001-12.373-3.13-14.801-6.89c10.262,4.093,33.339-19.082,37.187-22.93    c23.814-23.814,213.669-215.684,213.669-215.684s1.489-0.185,5.482,3.632c5.117,4.892,42.947,44.521,47.317,49.164    c6.189,6.577,5.727,8.101,5.727,8.101L326.528,312.267z" fill="url(#SVGID_6_)" fill-rule="evenodd"/></g></g></svg>