<?xml version="1.0" standalone="no"?>
<!DOCTYPE svg PUBLIC "-//W3C//DTD SVG 20010904//EN"
 "http://www.w3.org/TR/2001/REC-SVG-20010904/DTD/svg10.dtd">
<svg version="1.0" xmlns="http://www.w3.org/2000/svg"
 width="700.000000pt" height="700.000000pt" viewBox="0 0 700.000000 700.000000"
 preserveAspectRatio="xMidYMid meet">
<metadata>
Created by potrace 1.11, written by Peter Selinger 2001-2013
</metadata>
<g transform="translate(0.000000,700.000000) scale(0.100000,-0.100000)"
fill="#000000" stroke="none">
<path d="M1986 5970 c8 -14 18 -32 23 -40 22 -36 87 -148 102 -175 8 -16 48
-86 88 -155 40 -69 83 -143 96 -165 12 -22 71 -123 130 -225 59 -102 119 -204
132 -228 13 -23 53 -93 89 -154 35 -61 64 -113 64 -115 0 -3 8 -17 19 -31 10
-15 32 -52 49 -82 16 -30 53 -95 82 -145 29 -49 62 -108 74 -130 13 -22 104
-182 203 -355 99 -174 194 -340 211 -370 16 -30 47 -84 67 -120 21 -36 49 -85
63 -110 14 -25 72 -128 130 -230 105 -186 121 -215 182 -325 18 -33 36 -64 40
-70 4 -5 18 -30 32 -55 14 -25 114 -202 223 -395 109 -192 209 -370 223 -395
14 -25 57 -101 97 -170 93 -161 186 -323 217 -380 14 -25 51 -89 82 -142 31
-53 56 -99 56 -102 0 -4 -567 -6 -1260 -6 -693 0 -1260 2 -1260 5 0 6 15 33
133 235 143 247 425 735 470 815 41 73 201 349 216 375 5 8 53 91 107 184 85
149 95 171 85 189 -7 11 -21 34 -31 51 -10 17 -34 60 -55 96 -21 36 -46 81
-57 100 -11 19 -50 86 -86 148 -73 127 -61 126 -129 7 -22 -38 -73 -128 -115
-200 -41 -71 -203 -350 -358 -620 -156 -269 -291 -503 -301 -520 -11 -16 -22
-37 -26 -45 -4 -8 -26 -46 -48 -85 -23 -38 -53 -90 -67 -115 -14 -25 -57 -99
-95 -165 -39 -66 -122 -210 -185 -320 -64 -110 -145 -251 -182 -314 -36 -62
-66 -115 -66 -116 0 -2 -30 -54 -66 -115 -36 -61 -63 -114 -60 -118 9 -8 4356
-8 4356 1 0 4 -77 141 -172 305 -94 163 -182 317 -196 342 -14 25 -61 108
-105 185 -44 77 -94 165 -110 195 -17 30 -41 72 -54 92 -13 21 -23 40 -23 43
0 3 -8 18 -19 33 -10 15 -60 101 -111 192 -108 193 -249 440 -279 490 -11 19
-24 42 -28 50 -4 8 -44 80 -90 159 -46 79 -83 145 -83 146 0 1 -29 53 -65 114
-36 62 -65 114 -65 116 0 2 -19 36 -43 77 -43 73 -399 697 -452 793 -16 28
-39 67 -52 87 -12 21 -23 39 -23 41 0 2 -56 101 -125 221 -69 120 -125 220
-125 222 0 3 -11 21 -23 42 -13 20 -38 62 -55 93 -17 31 -90 159 -163 285 -72
126 -140 245 -151 264 -11 19 -54 93 -95 163 -41 71 -72 131 -70 134 7 6 1188
5 1194 -1 3 -3 -9 -27 -26 -54 -17 -27 -31 -51 -31 -54 0 -3 -18 -36 -41 -73
-22 -37 -50 -84 -61 -104 -11 -20 -56 -97 -99 -172 -44 -75 -79 -142 -79 -148
0 -15 293 -521 301 -521 6 0 38 51 84 135 6 11 123 214 260 450 136 237 256
444 265 460 39 67 313 543 335 580 l23 40 -1528 0 -1528 0 14 -25z"/>
</g>
</svg>
